<?xml version="1.0" encoding="UTF-8" standalone="no"?>
<!DOCTYPE svg PUBLIC "-//W3C//DTD SVG 1.1//EN"
 "http://www.w3.org/Graphics/SVG/1.1/DTD/svg11.dtd">
<!-- Generated by graphviz version 2.40.1 (20161225.0304)
 -->
<!-- Title: dependencies Pages: 1 -->
<svg width="1769pt" height="211pt"
 viewBox="0.00 0.00 1769.00 211.00" xmlns="http://www.w3.org/2000/svg" xmlns:xlink="http://www.w3.org/1999/xlink">
<g id="graph0" class="graph" transform="scale(1 1) rotate(0) translate(4 207)">
<title>dependencies</title>
<polygon fill="#ffffff" stroke="transparent" points="-4,4 -4,-207 1765,-207 1765,4 -4,4"/>
<text text-anchor="start" x="859.5091" y="-42.4" font-family="sans-serif" font-weight="bold" font-size="14.00" fill="#000000">Legend</text>
<polygon fill="#ffffb3" stroke="transparent" points="646.5,-10 646.5,-30 666.5,-30 666.5,-10 646.5,-10"/>
<text text-anchor="start" x="670.129" y="-15.4" font-family="sans-serif" font-size="14.00" fill="#000000"> &#160;Declarations</text>
<polygon fill="#8dd3c7" stroke="transparent" points="759.5,-10 759.5,-30 779.5,-30 779.5,-10 759.5,-10"/>
<text text-anchor="start" x="783.2251" y="-15.4" font-family="sans-serif" font-size="14.00" fill="#000000"> &#160;Module</text>
<polygon fill="#80b1d3" stroke="transparent" points="845.5,-10 845.5,-30 865.5,-30 865.5,-10 845.5,-10"/>
<text text-anchor="start" x="869.2812" y="-15.4" font-family="sans-serif" font-size="14.00" fill="#000000"> &#160;Bootstrap</text>
<polygon fill="#fdb462" stroke="transparent" points="942.5,-10 942.5,-30 962.5,-30 962.5,-10 942.5,-10"/>
<text text-anchor="start" x="966.1732" y="-15.4" font-family="sans-serif" font-size="14.00" fill="#000000"> &#160;Providers</text>
<polygon fill="#fb8072" stroke="transparent" points="1038.5,-10 1038.5,-30 1058.5,-30 1058.5,-10 1038.5,-10"/>
<text text-anchor="start" x="1062.2258" y="-15.4" font-family="sans-serif" font-size="14.00" fill="#000000"> &#160;Exports</text>
<g id="clust1" class="cluster">
<title>cluster_Tab2PageModule</title>
<polygon fill="none" stroke="#000000" stroke-dasharray="1,5" points="8,-70 8,-195 1753,-195 1753,-70 8,-70"/>
</g>
<g id="clust2" class="cluster">
<title>cluster_Tab2PageModule_declarations</title>
<polygon fill="none" stroke="#000000" points="977,-78 977,-130 1745,-130 1745,-78 977,-78"/>
</g>
<g id="clust7" class="cluster">
<title>cluster_Tab2PageModule_imports</title>
<polygon fill="none" stroke="#000000" points="16,-78 16,-130 969,-130 969,-78 16,-78"/>
</g>
<!-- ClasificacionPruebaHoyComponent -->
<g id="node1" class="node">
<title>ClasificacionPruebaHoyComponent</title>
<polygon fill="#ffffb3" stroke="#000000" points="1737.1741,-122 1518.8259,-122 1518.8259,-86 1737.1741,-86 1737.1741,-122"/>
<text text-anchor="middle" x="1628" y="-99.8" font-family="Times,serif" font-size="14.00" fill="#000000">ClasificacionPruebaHoyComponent</text>
</g>
<!-- Tab2PageModule -->
<g id="node5" class="node">
<title>Tab2PageModule</title>
<polygon fill="#8dd3c7" stroke="#000000" points="924.5298,-187 921.5298,-191 900.5298,-191 897.5298,-187 809.4702,-187 809.4702,-151 924.5298,-151 924.5298,-187"/>
<text text-anchor="middle" x="867" y="-164.8" font-family="Times,serif" font-size="14.00" fill="#000000">Tab2PageModule</text>
</g>
<!-- ClasificacionPruebaHoyComponent&#45;&gt;Tab2PageModule -->
<g id="edge1" class="edge">
<title>ClasificacionPruebaHoyComponent&#45;&gt;Tab2PageModule</title>
<path fill="none" stroke="#000000" d="M1628,-122.0109C1628,-144.4852 1628,-180 1628,-180 1628,-180 934.8233,-180 934.8233,-180"/>
<polygon fill="#000000" stroke="#000000" points="934.8233,-176.5001 924.8233,-180 934.8233,-183.5001 934.8233,-176.5001"/>
</g>
<!-- PruebaDirectoHoyComponent -->
<g id="node2" class="node">
<title>PruebaDirectoHoyComponent</title>
<polygon fill="#ffffb3" stroke="#000000" points="1501.2892,-122 1314.7108,-122 1314.7108,-86 1501.2892,-86 1501.2892,-122"/>
<text text-anchor="middle" x="1408" y="-99.8" font-family="Times,serif" font-size="14.00" fill="#000000">PruebaDirectoHoyComponent</text>
</g>
<!-- PruebaDirectoHoyComponent&#45;&gt;Tab2PageModule -->
<g id="edge2" class="edge">
<title>PruebaDirectoHoyComponent&#45;&gt;Tab2PageModule</title>
<path fill="none" stroke="#000000" d="M1408,-122.1289C1408,-142.5724 1408,-173 1408,-173 1408,-173 934.6402,-173 934.6402,-173"/>
<polygon fill="#000000" stroke="#000000" points="934.6402,-169.5001 924.6402,-173 934.6401,-176.5001 934.6402,-169.5001"/>
</g>
<!-- PruebasCompeticionHoyComponent -->
<g id="node3" class="node">
<title>PruebasCompeticionHoyComponent</title>
<polygon fill="#ffffb3" stroke="#000000" points="1297.0842,-122 1074.9158,-122 1074.9158,-86 1297.0842,-86 1297.0842,-122"/>
<text text-anchor="middle" x="1186" y="-99.8" font-family="Times,serif" font-size="14.00" fill="#000000">PruebasCompeticionHoyComponent</text>
</g>
<!-- PruebasCompeticionHoyComponent&#45;&gt;Tab2PageModule -->
<g id="edge3" class="edge">
<title>PruebasCompeticionHoyComponent&#45;&gt;Tab2PageModule</title>
<path fill="none" stroke="#000000" d="M1186,-122.2667C1186,-140.5552 1186,-166 1186,-166 1186,-166 934.7685,-166 934.7685,-166"/>
<polygon fill="#000000" stroke="#000000" points="934.7685,-162.5001 924.7685,-166 934.7685,-169.5001 934.7685,-162.5001"/>
</g>
<!-- Tab2Page -->
<g id="node4" class="node">
<title>Tab2Page</title>
<polygon fill="#ffffb3" stroke="#000000" points="1056.979,-122 985.021,-122 985.021,-86 1056.979,-86 1056.979,-122"/>
<text text-anchor="middle" x="1021" y="-99.8" font-family="Times,serif" font-size="14.00" fill="#000000">Tab2Page</text>
</g>
<!-- Tab2Page&#45;&gt;Tab2PageModule -->
<g id="edge4" class="edge">
<title>Tab2Page&#45;&gt;Tab2PageModule</title>
<path fill="none" stroke="#000000" d="M1021,-122.0091C1021,-138.0494 1021,-159 1021,-159 1021,-159 934.7821,-159 934.7821,-159"/>
<polygon fill="#000000" stroke="#000000" points="934.7821,-155.5001 924.7821,-159 934.782,-162.5001 934.7821,-155.5001"/>
</g>
<!-- MarcasModalHoyPageModule -->
<g id="node6" class="node">
<title>MarcasModalHoyPageModule</title>
<polygon fill="#8dd3c7" stroke="#000000" points="961.112,-122 958.112,-126 937.112,-126 934.112,-122 772.888,-122 772.888,-86 961.112,-86 961.112,-122"/>
<text text-anchor="middle" x="867" y="-99.8" font-family="Times,serif" font-size="14.00" fill="#000000">MarcasModalHoyPageModule</text>
</g>
<!-- MarcasModalHoyPageModule&#45;&gt;Tab2PageModule -->
<g id="edge5" class="edge">
<title>MarcasModalHoyPageModule&#45;&gt;Tab2PageModule</title>
<path fill="none" stroke="#000000" d="M867,-122.1061C867,-122.1061 867,-140.991 867,-140.991"/>
<polygon fill="#000000" stroke="#000000" points="863.5001,-140.9909 867,-150.991 870.5001,-140.991 863.5001,-140.9909"/>
</g>
<!-- PruebaDirectoIntentoHoyPageModule -->
<g id="node7" class="node">
<title>PruebaDirectoIntentoHoyPageModule</title>
<polygon fill="#8dd3c7" stroke="#000000" points="754.8749,-122 751.8749,-126 730.8749,-126 727.8749,-122 523.1251,-122 523.1251,-86 754.8749,-86 754.8749,-122"/>
<text text-anchor="middle" x="639" y="-99.8" font-family="Times,serif" font-size="14.00" fill="#000000">PruebaDirectoIntentoHoyPageModule</text>
</g>
<!-- PruebaDirectoIntentoHoyPageModule&#45;&gt;Tab2PageModule -->
<g id="edge6" class="edge">
<title>PruebaDirectoIntentoHoyPageModule&#45;&gt;Tab2PageModule</title>
<path fill="none" stroke="#000000" d="M639,-122.0091C639,-138.0494 639,-159 639,-159 639,-159 799.466,-159 799.466,-159"/>
<polygon fill="#000000" stroke="#000000" points="799.466,-162.5001 809.466,-159 799.4659,-155.5001 799.466,-162.5001"/>
</g>
<!-- PruebaHoyModalPageModule -->
<g id="node8" class="node">
<title>PruebaHoyModalPageModule</title>
<polygon fill="#8dd3c7" stroke="#000000" points="505.2906,-122 502.2906,-126 481.2906,-126 478.2906,-122 318.7094,-122 318.7094,-86 505.2906,-86 505.2906,-122"/>
<text text-anchor="middle" x="412" y="-99.8" font-family="Times,serif" font-size="14.00" fill="#000000">PruebaHoyModalPageModule</text>
</g>
<!-- PruebaHoyModalPageModule&#45;&gt;Tab2PageModule -->
<g id="edge7" class="edge">
<title>PruebaHoyModalPageModule&#45;&gt;Tab2PageModule</title>
<path fill="none" stroke="#000000" d="M412,-122.2667C412,-140.5552 412,-166 412,-166 412,-166 799.3739,-166 799.3739,-166"/>
<polygon fill="#000000" stroke="#000000" points="799.374,-169.5001 809.3739,-166 799.3739,-162.5001 799.374,-169.5001"/>
</g>
<!-- SharedModule -->
<g id="node9" class="node">
<title>SharedModule</title>
<polygon fill="#8dd3c7" stroke="#000000" points="301.4231,-122 298.4231,-126 277.4231,-126 274.4231,-122 202.5769,-122 202.5769,-86 301.4231,-86 301.4231,-122"/>
<text text-anchor="middle" x="252" y="-99.8" font-family="Times,serif" font-size="14.00" fill="#000000">SharedModule</text>
</g>
<!-- SharedModule&#45;&gt;Tab2PageModule -->
<g id="edge8" class="edge">
<title>SharedModule&#45;&gt;Tab2PageModule</title>
<path fill="none" stroke="#000000" d="M252,-122.1289C252,-142.5724 252,-173 252,-173 252,-173 799.4187,-173 799.4187,-173"/>
<polygon fill="#000000" stroke="#000000" points="799.4187,-176.5001 809.4187,-173 799.4187,-169.5001 799.4187,-176.5001"/>
</g>
<!-- Tab2PageRoutingModule -->
<g id="node10" class="node">
<title>Tab2PageRoutingModule</title>
<polygon fill="#8dd3c7" stroke="#000000" points="184.147,-122 181.147,-126 160.147,-126 157.147,-122 23.853,-122 23.853,-86 184.147,-86 184.147,-122"/>
<text text-anchor="middle" x="104" y="-99.8" font-family="Times,serif" font-size="14.00" fill="#000000">Tab2PageRoutingModule</text>
</g>
<!-- Tab2PageRoutingModule&#45;&gt;Tab2PageModule -->
<g id="edge9" class="edge">
<title>Tab2PageRoutingModule&#45;&gt;Tab2PageModule</title>
<path fill="none" stroke="#000000" d="M104,-122.0109C104,-144.4852 104,-180 104,-180 104,-180 799.3382,-180 799.3382,-180"/>
<polygon fill="#000000" stroke="#000000" points="799.3383,-183.5001 809.3382,-180 799.3382,-176.5001 799.3383,-183.5001"/>
</g>
</g>
</svg>
