<?xml version="1.0" encoding="UTF-8" standalone="no"?>
<!DOCTYPE svg PUBLIC "-//W3C//DTD SVG 1.1//EN"
 "http://www.w3.org/Graphics/SVG/1.1/DTD/svg11.dtd">
<!-- Generated by graphviz version 2.40.1 (20161225.0304)
 -->
<!-- Title: dependencies Pages: 1 -->
<svg width="1250pt" height="211pt"
 viewBox="0.00 0.00 1250.00 211.00" xmlns="http://www.w3.org/2000/svg" xmlns:xlink="http://www.w3.org/1999/xlink">
<g id="graph0" class="graph" transform="scale(1 1) rotate(0) translate(4 207)">
<title>dependencies</title>
<polygon fill="#ffffff" stroke="transparent" points="-4,4 -4,-207 1246,-207 1246,4 -4,4"/>
<text text-anchor="start" x="600.0091" y="-42.4" font-family="sans-serif" font-weight="bold" font-size="14.00" fill="#000000">Legend</text>
<polygon fill="#ffffb3" stroke="transparent" points="387,-10 387,-30 407,-30 407,-10 387,-10"/>
<text text-anchor="start" x="410.629" y="-15.4" font-family="sans-serif" font-size="14.00" fill="#000000"> &#160;Declarations</text>
<polygon fill="#8dd3c7" stroke="transparent" points="500,-10 500,-30 520,-30 520,-10 500,-10"/>
<text text-anchor="start" x="523.7251" y="-15.4" font-family="sans-serif" font-size="14.00" fill="#000000"> &#160;Module</text>
<polygon fill="#80b1d3" stroke="transparent" points="586,-10 586,-30 606,-30 606,-10 586,-10"/>
<text text-anchor="start" x="609.7812" y="-15.4" font-family="sans-serif" font-size="14.00" fill="#000000"> &#160;Bootstrap</text>
<polygon fill="#fdb462" stroke="transparent" points="683,-10 683,-30 703,-30 703,-10 683,-10"/>
<text text-anchor="start" x="706.6732" y="-15.4" font-family="sans-serif" font-size="14.00" fill="#000000"> &#160;Providers</text>
<polygon fill="#fb8072" stroke="transparent" points="779,-10 779,-30 799,-30 799,-10 779,-10"/>
<text text-anchor="start" x="802.7258" y="-15.4" font-family="sans-serif" font-size="14.00" fill="#000000"> &#160;Exports</text>
<g id="clust1" class="cluster">
<title>cluster_LayoutModule</title>
<polygon fill="none" stroke="#000000" stroke-dasharray="1,5" points="8,-70 8,-195 1234,-195 1234,-70 8,-70"/>
</g>
<g id="clust2" class="cluster">
<title>cluster_LayoutModule_declarations</title>
<polygon fill="none" stroke="#000000" points="300,-78 300,-130 1226,-130 1226,-78 300,-78"/>
</g>
<g id="clust9" class="cluster">
<title>cluster_LayoutModule_imports</title>
<polygon fill="none" stroke="#000000" points="16,-78 16,-130 292,-130 292,-78 16,-78"/>
</g>
<!-- BreadcrumbComponent -->
<g id="node1" class="node">
<title>BreadcrumbComponent</title>
<polygon fill="#ffffb3" stroke="#000000" points="1218.0253,-122 1067.9747,-122 1067.9747,-86 1218.0253,-86 1218.0253,-122"/>
<text text-anchor="middle" x="1143" y="-99.8" font-family="Times,serif" font-size="14.00" fill="#000000">BreadcrumbComponent</text>
</g>
<!-- LayoutModule -->
<g id="node7" class="node">
<title>LayoutModule</title>
<polygon fill="#8dd3c7" stroke="#000000" points="641.7078,-187 638.7078,-191 617.7078,-191 614.7078,-187 542.2922,-187 542.2922,-151 641.7078,-151 641.7078,-187"/>
<text text-anchor="middle" x="592" y="-164.8" font-family="Times,serif" font-size="14.00" fill="#000000">LayoutModule</text>
</g>
<!-- BreadcrumbComponent&#45;&gt;LayoutModule -->
<g id="edge1" class="edge">
<title>BreadcrumbComponent&#45;&gt;LayoutModule</title>
<path fill="none" stroke="#000000" d="M1143,-122.2921C1143,-144.2057 1143,-178 1143,-178 1143,-178 651.8694,-178 651.8694,-178"/>
<polygon fill="#000000" stroke="#000000" points="651.8694,-174.5001 641.8694,-178 651.8693,-181.5001 651.8694,-174.5001"/>
</g>
<!-- LayoutComponent -->
<g id="node2" class="node">
<title>LayoutComponent</title>
<polygon fill="#ffffb3" stroke="#000000" points="1049.4902,-122 928.5098,-122 928.5098,-86 1049.4902,-86 1049.4902,-122"/>
<text text-anchor="middle" x="989" y="-99.8" font-family="Times,serif" font-size="14.00" fill="#000000">LayoutComponent</text>
</g>
<!-- LayoutComponent&#45;&gt;LayoutModule -->
<g id="edge2" class="edge">
<title>LayoutComponent&#45;&gt;LayoutModule</title>
<path fill="none" stroke="#000000" d="M989,-122.1061C989,-141.3391 989,-169 989,-169 989,-169 651.8783,-169 651.8783,-169"/>
<polygon fill="#000000" stroke="#000000" points="651.8784,-165.5001 641.8783,-169 651.8783,-172.5001 651.8784,-165.5001"/>
</g>
<!-- PageNotFoundComponent -->
<g id="node3" class="node">
<title>PageNotFoundComponent</title>
<polygon fill="#ffffb3" stroke="#000000" points="910.8243,-122 745.1757,-122 745.1757,-86 910.8243,-86 910.8243,-122"/>
<text text-anchor="middle" x="828" y="-99.8" font-family="Times,serif" font-size="14.00" fill="#000000">PageNotFoundComponent</text>
</g>
<!-- PageNotFoundComponent&#45;&gt;LayoutModule -->
<g id="edge3" class="edge">
<title>PageNotFoundComponent&#45;&gt;LayoutModule</title>
<path fill="none" stroke="#000000" d="M828,-122.027C828,-138.3976 828,-160 828,-160 828,-160 651.7612,-160 651.7612,-160"/>
<polygon fill="#000000" stroke="#000000" points="651.7612,-156.5001 641.7612,-160 651.7611,-163.5001 651.7612,-156.5001"/>
</g>
<!-- SidenavComponent -->
<g id="node4" class="node">
<title>SidenavComponent</title>
<polygon fill="#ffffb3" stroke="#000000" points="727.4356,-122 600.5644,-122 600.5644,-86 727.4356,-86 727.4356,-122"/>
<text text-anchor="middle" x="664" y="-99.8" font-family="Times,serif" font-size="14.00" fill="#000000">SidenavComponent</text>
</g>
<!-- SidenavComponent&#45;&gt;LayoutModule -->
<g id="edge4" class="edge">
<title>SidenavComponent&#45;&gt;LayoutModule</title>
<path fill="none" stroke="#000000" d="M621.1932,-122.1061C621.1932,-122.1061 621.1932,-140.991 621.1932,-140.991"/>
<polygon fill="#000000" stroke="#000000" points="617.6933,-140.9909 621.1932,-150.991 624.6933,-140.991 617.6933,-140.9909"/>
</g>
<!-- ToolbarComponent -->
<g id="node5" class="node">
<title>ToolbarComponent</title>
<polygon fill="#ffffb3" stroke="#000000" points="582.6513,-122 457.3487,-122 457.3487,-86 582.6513,-86 582.6513,-122"/>
<text text-anchor="middle" x="520" y="-99.8" font-family="Times,serif" font-size="14.00" fill="#000000">ToolbarComponent</text>
</g>
<!-- ToolbarComponent&#45;&gt;LayoutModule -->
<g id="edge5" class="edge">
<title>ToolbarComponent&#45;&gt;LayoutModule</title>
<path fill="none" stroke="#000000" d="M562.6108,-122.1061C562.6108,-122.1061 562.6108,-140.991 562.6108,-140.991"/>
<polygon fill="#000000" stroke="#000000" points="559.1109,-140.9909 562.6108,-150.991 566.1109,-140.991 559.1109,-140.9909"/>
</g>
<!-- UserInfoComponent -->
<g id="node6" class="node">
<title>UserInfoComponent</title>
<polygon fill="#ffffb3" stroke="#000000" points="439.58,-122 308.42,-122 308.42,-86 439.58,-86 439.58,-122"/>
<text text-anchor="middle" x="374" y="-99.8" font-family="Times,serif" font-size="14.00" fill="#000000">UserInfoComponent</text>
</g>
<!-- UserInfoComponent&#45;&gt;LayoutModule -->
<g id="edge6" class="edge">
<title>UserInfoComponent&#45;&gt;LayoutModule</title>
<path fill="none" stroke="#000000" d="M374,-122.027C374,-138.3976 374,-160 374,-160 374,-160 532.2596,-160 532.2596,-160"/>
<polygon fill="#000000" stroke="#000000" points="532.2597,-163.5001 542.2596,-160 532.2596,-156.5001 532.2597,-163.5001"/>
</g>
<!-- LayoutRoutingModule -->
<g id="node8" class="node">
<title>LayoutRoutingModule</title>
<polygon fill="#8dd3c7" stroke="#000000" points="284.3258,-122 281.3258,-126 260.3258,-126 257.3258,-122 139.6742,-122 139.6742,-86 284.3258,-86 284.3258,-122"/>
<text text-anchor="middle" x="212" y="-99.8" font-family="Times,serif" font-size="14.00" fill="#000000">LayoutRoutingModule</text>
</g>
<!-- LayoutRoutingModule&#45;&gt;LayoutModule -->
<g id="edge7" class="edge">
<title>LayoutRoutingModule&#45;&gt;LayoutModule</title>
<path fill="none" stroke="#000000" d="M212,-122.1061C212,-141.3391 212,-169 212,-169 212,-169 532.3216,-169 532.3216,-169"/>
<polygon fill="#000000" stroke="#000000" points="532.3217,-172.5001 542.3216,-169 532.3216,-165.5001 532.3217,-172.5001"/>
</g>
<!-- SharedModule -->
<g id="node9" class="node">
<title>SharedModule</title>
<polygon fill="#8dd3c7" stroke="#000000" points="122.4231,-122 119.4231,-126 98.4231,-126 95.4231,-122 23.5769,-122 23.5769,-86 122.4231,-86 122.4231,-122"/>
<text text-anchor="middle" x="73" y="-99.8" font-family="Times,serif" font-size="14.00" fill="#000000">SharedModule</text>
</g>
<!-- SharedModule&#45;&gt;LayoutModule -->
<g id="edge8" class="edge">
<title>SharedModule&#45;&gt;LayoutModule</title>
<path fill="none" stroke="#000000" d="M73,-122.2921C73,-144.2057 73,-178 73,-178 73,-178 532.2361,-178 532.2361,-178"/>
<polygon fill="#000000" stroke="#000000" points="532.2361,-181.5001 542.2361,-178 532.2361,-174.5001 532.2361,-181.5001"/>
</g>
</g>
</svg>
