<?xml version="1.0" encoding="UTF-8" standalone="no"?>
<!DOCTYPE svg PUBLIC "-//W3C//DTD SVG 1.1//EN"
 "http://www.w3.org/Graphics/SVG/1.1/DTD/svg11.dtd">
<!-- Generated by graphviz version 2.40.1 (20161225.0304)
 -->
<!-- Title: dependencies Pages: 1 -->
<svg width="4607pt" height="290pt"
 viewBox="0.00 0.00 4607.00 290.00" xmlns="http://www.w3.org/2000/svg" xmlns:xlink="http://www.w3.org/1999/xlink">
<g id="graph0" class="graph" transform="scale(1 1) rotate(0) translate(4 286)">
<title>dependencies</title>
<polygon fill="#ffffff" stroke="transparent" points="-4,4 -4,-286 4603,-286 4603,4 -4,4"/>
<text text-anchor="start" x="2278.5091" y="-42.4" font-family="sans-serif" font-weight="bold" font-size="14.00" fill="#000000">Legend</text>
<polygon fill="#ffffb3" stroke="transparent" points="2065.5,-10 2065.5,-30 2085.5,-30 2085.5,-10 2065.5,-10"/>
<text text-anchor="start" x="2089.129" y="-15.4" font-family="sans-serif" font-size="14.00" fill="#000000"> &#160;Declarations</text>
<polygon fill="#8dd3c7" stroke="transparent" points="2178.5,-10 2178.5,-30 2198.5,-30 2198.5,-10 2178.5,-10"/>
<text text-anchor="start" x="2202.2251" y="-15.4" font-family="sans-serif" font-size="14.00" fill="#000000"> &#160;Module</text>
<polygon fill="#80b1d3" stroke="transparent" points="2264.5,-10 2264.5,-30 2284.5,-30 2284.5,-10 2264.5,-10"/>
<text text-anchor="start" x="2288.2812" y="-15.4" font-family="sans-serif" font-size="14.00" fill="#000000"> &#160;Bootstrap</text>
<polygon fill="#fdb462" stroke="transparent" points="2361.5,-10 2361.5,-30 2381.5,-30 2381.5,-10 2361.5,-10"/>
<text text-anchor="start" x="2385.1732" y="-15.4" font-family="sans-serif" font-size="14.00" fill="#000000"> &#160;Providers</text>
<polygon fill="#fb8072" stroke="transparent" points="2457.5,-10 2457.5,-30 2477.5,-30 2477.5,-10 2457.5,-10"/>
<text text-anchor="start" x="2481.2258" y="-15.4" font-family="sans-serif" font-size="14.00" fill="#000000"> &#160;Exports</text>
<g id="clust1" class="cluster">
<title>cluster_AppModule</title>
<polygon fill="none" stroke="#000000" stroke-dasharray="1,5" points="8,-70 8,-274 298,-274 298,-70 8,-70"/>
</g>
<g id="clust2" class="cluster">
<title>cluster_AppModule_declarations</title>
<polygon fill="none" stroke="#000000" points="168,-78 168,-130 290,-130 290,-78 168,-78"/>
</g>
<g id="clust4" class="cluster">
<title>cluster_AppModule_imports</title>
<polygon fill="none" stroke="#000000" points="16,-78 16,-130 160,-130 160,-78 16,-78"/>
</g>
<g id="clust6" class="cluster">
<title>cluster_AppModule_bootstrap</title>
<polygon fill="none" stroke="#000000" points="96,-214 96,-266 220,-266 220,-214 96,-214"/>
</g>
<g id="clust14" class="cluster">
<title>cluster_MarcasModalHoyPageModule</title>
<polygon fill="none" stroke="#000000" stroke-dasharray="1,5" points="306,-70 306,-198 510,-198 510,-70 306,-70"/>
</g>
<g id="clust15" class="cluster">
<title>cluster_MarcasModalHoyPageModule_declarations</title>
<polygon fill="none" stroke="#000000" points="327,-78 327,-130 489,-130 489,-78 327,-78"/>
</g>
<g id="clust21" class="cluster">
<title>cluster_MarcasModalPageModule</title>
<polygon fill="none" stroke="#000000" stroke-dasharray="1,5" points="3745,-70 3745,-198 3925,-198 3925,-70 3745,-70"/>
</g>
<g id="clust22" class="cluster">
<title>cluster_MarcasModalPageModule_declarations</title>
<polygon fill="none" stroke="#000000" points="3767,-78 3767,-130 3903,-130 3903,-78 3767,-78"/>
</g>
<g id="clust28" class="cluster">
<title>cluster_PruebaDirectoIntentoHoyPageModule</title>
<polygon fill="none" stroke="#000000" stroke-dasharray="1,5" points="1494,-70 1494,-198 1742,-198 1742,-70 1494,-70"/>
</g>
<g id="clust29" class="cluster">
<title>cluster_PruebaDirectoIntentoHoyPageModule_declarations</title>
<polygon fill="none" stroke="#000000" points="1516,-78 1516,-130 1720,-130 1720,-78 1516,-78"/>
</g>
<g id="clust35" class="cluster">
<title>cluster_PruebaDirectoIntentoPageModule</title>
<polygon fill="none" stroke="#000000" stroke-dasharray="1,5" points="3933,-70 3933,-198 4157,-198 4157,-70 3933,-70"/>
</g>
<g id="clust36" class="cluster">
<title>cluster_PruebaDirectoIntentoPageModule_declarations</title>
<polygon fill="none" stroke="#000000" points="3955,-78 3955,-130 4135,-130 4135,-78 3955,-78"/>
</g>
<g id="clust42" class="cluster">
<title>cluster_PruebaHoyModalPageModule</title>
<polygon fill="none" stroke="#000000" stroke-dasharray="1,5" points="1750,-70 1750,-198 2046,-198 2046,-70 1750,-70"/>
</g>
<g id="clust43" class="cluster">
<title>cluster_PruebaHoyModalPageModule_declarations</title>
<polygon fill="none" stroke="#000000" points="1758,-78 1758,-130 1916,-130 1916,-78 1758,-78"/>
</g>
<g id="clust45" class="cluster">
<title>cluster_PruebaHoyModalPageModule_imports</title>
<polygon fill="none" stroke="#000000" points="1924,-78 1924,-130 2038,-130 2038,-78 1924,-78"/>
</g>
<g id="clust49" class="cluster">
<title>cluster_PruebaModalPageModule</title>
<polygon fill="none" stroke="#000000" stroke-dasharray="1,5" points="2655,-70 2655,-198 2833,-198 2833,-70 2655,-70"/>
</g>
<g id="clust50" class="cluster">
<title>cluster_PruebaModalPageModule_declarations</title>
<polygon fill="none" stroke="#000000" points="2677,-78 2677,-130 2811,-130 2811,-78 2677,-78"/>
</g>
<g id="clust56" class="cluster">
<title>cluster_SharedModule</title>
<polygon fill="none" stroke="#000000" stroke-dasharray="1,5" points="2054,-138 2054,-206 2579,-206 2579,-138 2054,-138"/>
</g>
<g id="clust57" class="cluster">
<title>cluster_SharedModule_declarations</title>
<polygon fill="none" stroke="#000000" points="2324,-146 2324,-198 2571,-198 2571,-146 2324,-146"/>
</g>
<g id="clust61" class="cluster">
<title>cluster_SharedModule_exports</title>
<polygon fill="none" stroke="#000000" points="2062,-146 2062,-198 2316,-198 2316,-146 2062,-146"/>
</g>
<g id="clust64" class="cluster">
<title>cluster_Tab1PageModule</title>
<polygon fill="none" stroke="#000000" stroke-dasharray="1,5" points="2841,-138 2841,-266 3737,-266 3737,-138 2841,-138"/>
</g>
<g id="clust65" class="cluster">
<title>cluster_Tab1PageModule_declarations</title>
<polygon fill="none" stroke="#000000" points="3033,-146 3033,-198 3729,-198 3729,-146 3033,-146"/>
</g>
<g id="clust70" class="cluster">
<title>cluster_Tab1PageModule_imports</title>
<polygon fill="none" stroke="#000000" points="2849,-146 2849,-198 3025,-198 3025,-146 2849,-146"/>
</g>
<g id="clust80" class="cluster">
<title>cluster_Tab2PageModule</title>
<polygon fill="none" stroke="#000000" stroke-dasharray="1,5" points="518,-138 518,-266 1486,-266 1486,-138 518,-138"/>
</g>
<g id="clust81" class="cluster">
<title>cluster_Tab2PageModule_declarations</title>
<polygon fill="none" stroke="#000000" points="710,-146 710,-198 1478,-198 1478,-146 710,-146"/>
</g>
<g id="clust86" class="cluster">
<title>cluster_Tab2PageModule_imports</title>
<polygon fill="none" stroke="#000000" points="526,-146 526,-198 702,-198 702,-146 526,-146"/>
</g>
<g id="clust96" class="cluster">
<title>cluster_Tab3PageModule</title>
<polygon fill="none" stroke="#000000" stroke-dasharray="1,5" points="4165,-70 4165,-198 4297,-198 4297,-70 4165,-70"/>
</g>
<g id="clust97" class="cluster">
<title>cluster_Tab3PageModule_declarations</title>
<polygon fill="none" stroke="#000000" points="4187,-78 4187,-130 4275,-130 4275,-78 4187,-78"/>
</g>
<g id="clust103" class="cluster">
<title>cluster_TabsPageModule</title>
<polygon fill="none" stroke="#000000" stroke-dasharray="1,5" points="4305,-70 4305,-198 4591,-198 4591,-70 4305,-70"/>
</g>
<g id="clust104" class="cluster">
<title>cluster_TabsPageModule_declarations</title>
<polygon fill="none" stroke="#000000" points="4497,-78 4497,-130 4583,-130 4583,-78 4497,-78"/>
</g>
<g id="clust106" class="cluster">
<title>cluster_TabsPageModule_imports</title>
<polygon fill="none" stroke="#000000" points="4313,-78 4313,-130 4489,-130 4489,-78 4313,-78"/>
</g>
<!-- AppComponent -->
<g id="node1" class="node">
<title>AppComponent</title>
<polygon fill="#ffffb3" stroke="#000000" points="281.9399,-122 176.0601,-122 176.0601,-86 281.9399,-86 281.9399,-122"/>
<text text-anchor="middle" x="229" y="-99.8" font-family="Times,serif" font-size="14.00" fill="#000000">AppComponent</text>
</g>
<!-- AppModule -->
<g id="node2" class="node">
<title>AppModule</title>
<polygon fill="#8dd3c7" stroke="#000000" points="199.6571,-190 196.6571,-194 175.6571,-194 172.6571,-190 116.3429,-190 116.3429,-154 199.6571,-154 199.6571,-190"/>
<text text-anchor="middle" x="158" y="-167.8" font-family="Times,serif" font-size="14.00" fill="#000000">AppModule</text>
</g>
<!-- AppComponent&#45;&gt;AppModule -->
<g id="edge1" class="edge">
<title>AppComponent&#45;&gt;AppModule</title>
<path fill="none" stroke="#000000" d="M188.0544,-122.2228C188.0544,-122.2228 188.0544,-143.7269 188.0544,-143.7269"/>
<polygon fill="#000000" stroke="#000000" points="184.5544,-143.7269 188.0544,-153.7269 191.5544,-143.727 184.5544,-143.7269"/>
</g>
<!-- AppComponent  -->
<g id="node4" class="node">
<title>AppComponent </title>
<polygon fill="#80b1d3" stroke="#000000" points="212.439,-258 103.561,-258 103.561,-222 212.439,-222 212.439,-258"/>
<text text-anchor="middle" x="158" y="-235.8" font-family="Times,serif" font-size="14.00" fill="#000000">AppComponent </text>
</g>
<!-- AppModule&#45;&gt;AppComponent  -->
<g id="edge3" class="edge">
<title>AppModule&#45;&gt;AppComponent </title>
<path fill="none" stroke="#000000" stroke-dasharray="1,5" d="M158,-190.2228C158,-190.2228 158,-211.7269 158,-211.7269"/>
<polygon fill="#000000" stroke="#000000" points="154.5001,-211.7269 158,-221.7269 161.5001,-211.727 154.5001,-211.7269"/>
</g>
<!-- AppRoutingModule -->
<g id="node3" class="node">
<title>AppRoutingModule</title>
<polygon fill="#8dd3c7" stroke="#000000" points="152.2744,-122 149.2744,-126 128.2744,-126 125.2744,-122 23.7256,-122 23.7256,-86 152.2744,-86 152.2744,-122"/>
<text text-anchor="middle" x="88" y="-99.8" font-family="Times,serif" font-size="14.00" fill="#000000">AppRoutingModule</text>
</g>
<!-- AppRoutingModule&#45;&gt;AppModule -->
<g id="edge2" class="edge">
<title>AppRoutingModule&#45;&gt;AppModule</title>
<path fill="none" stroke="#000000" d="M134.2795,-122.2228C134.2795,-122.2228 134.2795,-143.7269 134.2795,-143.7269"/>
<polygon fill="#000000" stroke="#000000" points="130.7795,-143.7269 134.2795,-153.7269 137.7795,-143.727 130.7795,-143.7269"/>
</g>
<!-- MarcasModalHoyPage -->
<g id="node5" class="node">
<title>MarcasModalHoyPage</title>
<polygon fill="#ffffb3" stroke="#000000" points="480.5618,-122 335.4382,-122 335.4382,-86 480.5618,-86 480.5618,-122"/>
<text text-anchor="middle" x="408" y="-99.8" font-family="Times,serif" font-size="14.00" fill="#000000">MarcasModalHoyPage</text>
</g>
<!-- MarcasModalHoyPageModule -->
<g id="node6" class="node">
<title>MarcasModalHoyPageModule</title>
<polygon fill="#8dd3c7" stroke="#000000" points="502.112,-190 499.112,-194 478.112,-194 475.112,-190 313.888,-190 313.888,-154 502.112,-154 502.112,-190"/>
<text text-anchor="middle" x="408" y="-167.8" font-family="Times,serif" font-size="14.00" fill="#000000">MarcasModalHoyPageModule</text>
</g>
<!-- MarcasModalHoyPage&#45;&gt;MarcasModalHoyPageModule -->
<g id="edge4" class="edge">
<title>MarcasModalHoyPage&#45;&gt;MarcasModalHoyPageModule</title>
<path fill="none" stroke="#000000" d="M408,-122.2228C408,-122.2228 408,-143.7269 408,-143.7269"/>
<polygon fill="#000000" stroke="#000000" points="404.5001,-143.7269 408,-153.7269 411.5001,-143.727 404.5001,-143.7269"/>
</g>
<!-- Tab2PageModule -->
<g id="node32" class="node">
<title>Tab2PageModule</title>
<polygon fill="#8dd3c7" stroke="#000000" points="1198.5298,-258 1195.5298,-262 1174.5298,-262 1171.5298,-258 1083.4702,-258 1083.4702,-222 1198.5298,-222 1198.5298,-258"/>
<text text-anchor="middle" x="1141" y="-235.8" font-family="Times,serif" font-size="14.00" fill="#000000">Tab2PageModule</text>
</g>
<!-- MarcasModalHoyPageModule&#45;&gt;Tab2PageModule -->
<g id="edge29" class="edge">
<title>MarcasModalHoyPageModule&#45;&gt;Tab2PageModule</title>
<path fill="none" stroke="#000000" d="M408,-190.3228C408,-213.6602 408,-251 408,-251 408,-251 1073.1767,-251 1073.1767,-251"/>
<polygon fill="#000000" stroke="#000000" points="1073.1768,-254.5001 1083.1767,-251 1073.1767,-247.5001 1073.1768,-254.5001"/>
</g>
<!-- MarcasModalPage -->
<g id="node7" class="node">
<title>MarcasModalPage</title>
<polygon fill="#ffffb3" stroke="#000000" points="3895.4552,-122 3774.5448,-122 3774.5448,-86 3895.4552,-86 3895.4552,-122"/>
<text text-anchor="middle" x="3835" y="-99.8" font-family="Times,serif" font-size="14.00" fill="#000000">MarcasModalPage</text>
</g>
<!-- MarcasModalPageModule -->
<g id="node8" class="node">
<title>MarcasModalPageModule</title>
<polygon fill="#8dd3c7" stroke="#000000" points="3917.0057,-190 3914.0057,-194 3893.0057,-194 3890.0057,-190 3752.9943,-190 3752.9943,-154 3917.0057,-154 3917.0057,-190"/>
<text text-anchor="middle" x="3835" y="-167.8" font-family="Times,serif" font-size="14.00" fill="#000000">MarcasModalPageModule</text>
</g>
<!-- MarcasModalPage&#45;&gt;MarcasModalPageModule -->
<g id="edge5" class="edge">
<title>MarcasModalPage&#45;&gt;MarcasModalPageModule</title>
<path fill="none" stroke="#000000" d="M3835,-122.2228C3835,-122.2228 3835,-143.7269 3835,-143.7269"/>
<polygon fill="#000000" stroke="#000000" points="3831.5001,-143.7269 3835,-153.7269 3838.5001,-143.727 3831.5001,-143.7269"/>
</g>
<!-- Tab1PageModule -->
<g id="node26" class="node">
<title>Tab1PageModule</title>
<polygon fill="#8dd3c7" stroke="#000000" points="3287.5298,-258 3284.5298,-262 3263.5298,-262 3260.5298,-258 3172.4702,-258 3172.4702,-222 3287.5298,-222 3287.5298,-258"/>
<text text-anchor="middle" x="3230" y="-235.8" font-family="Times,serif" font-size="14.00" fill="#000000">Tab1PageModule</text>
</g>
<!-- MarcasModalPageModule&#45;&gt;Tab1PageModule -->
<g id="edge20" class="edge">
<title>MarcasModalPageModule&#45;&gt;Tab1PageModule</title>
<path fill="none" stroke="#000000" d="M3835,-190.1686C3835,-211.498 3835,-244 3835,-244 3835,-244 3297.7359,-244 3297.7359,-244"/>
<polygon fill="#000000" stroke="#000000" points="3297.7359,-240.5001 3287.7359,-244 3297.7359,-247.5001 3297.7359,-240.5001"/>
</g>
<!-- PruebaDirectoIntentoHoyPage -->
<g id="node9" class="node">
<title>PruebaDirectoIntentoHoyPage</title>
<polygon fill="#ffffb3" stroke="#000000" points="1711.8249,-122 1524.1751,-122 1524.1751,-86 1711.8249,-86 1711.8249,-122"/>
<text text-anchor="middle" x="1618" y="-99.8" font-family="Times,serif" font-size="14.00" fill="#000000">PruebaDirectoIntentoHoyPage</text>
</g>
<!-- PruebaDirectoIntentoHoyPageModule -->
<g id="node10" class="node">
<title>PruebaDirectoIntentoHoyPageModule</title>
<polygon fill="#8dd3c7" stroke="#000000" points="1733.8749,-190 1730.8749,-194 1709.8749,-194 1706.8749,-190 1502.1251,-190 1502.1251,-154 1733.8749,-154 1733.8749,-190"/>
<text text-anchor="middle" x="1618" y="-167.8" font-family="Times,serif" font-size="14.00" fill="#000000">PruebaDirectoIntentoHoyPageModule</text>
</g>
<!-- PruebaDirectoIntentoHoyPage&#45;&gt;PruebaDirectoIntentoHoyPageModule -->
<g id="edge6" class="edge">
<title>PruebaDirectoIntentoHoyPage&#45;&gt;PruebaDirectoIntentoHoyPageModule</title>
<path fill="none" stroke="#000000" d="M1618,-122.2228C1618,-122.2228 1618,-143.7269 1618,-143.7269"/>
<polygon fill="#000000" stroke="#000000" points="1614.5001,-143.7269 1618,-153.7269 1621.5001,-143.727 1614.5001,-143.7269"/>
</g>
<!-- PruebaDirectoIntentoHoyPageModule&#45;&gt;Tab2PageModule -->
<g id="edge30" class="edge">
<title>PruebaDirectoIntentoHoyPageModule&#45;&gt;Tab2PageModule</title>
<path fill="none" stroke="#000000" d="M1618,-190.0336C1618,-207.0597 1618,-230 1618,-230 1618,-230 1208.5373,-230 1208.5373,-230"/>
<polygon fill="#000000" stroke="#000000" points="1208.5374,-226.5001 1198.5373,-230 1208.5373,-233.5001 1208.5374,-226.5001"/>
</g>
<!-- PruebaDirectoIntentoPage -->
<g id="node11" class="node">
<title>PruebaDirectoIntentoPage</title>
<polygon fill="#ffffb3" stroke="#000000" points="4126.7184,-122 3963.2816,-122 3963.2816,-86 4126.7184,-86 4126.7184,-122"/>
<text text-anchor="middle" x="4045" y="-99.8" font-family="Times,serif" font-size="14.00" fill="#000000">PruebaDirectoIntentoPage</text>
</g>
<!-- PruebaDirectoIntentoPageModule -->
<g id="node12" class="node">
<title>PruebaDirectoIntentoPageModule</title>
<polygon fill="#8dd3c7" stroke="#000000" points="4148.7682,-190 4145.7682,-194 4124.7682,-194 4121.7682,-190 3941.2318,-190 3941.2318,-154 4148.7682,-154 4148.7682,-190"/>
<text text-anchor="middle" x="4045" y="-167.8" font-family="Times,serif" font-size="14.00" fill="#000000">PruebaDirectoIntentoPageModule</text>
</g>
<!-- PruebaDirectoIntentoPage&#45;&gt;PruebaDirectoIntentoPageModule -->
<g id="edge7" class="edge">
<title>PruebaDirectoIntentoPage&#45;&gt;PruebaDirectoIntentoPageModule</title>
<path fill="none" stroke="#000000" d="M4045,-122.2228C4045,-122.2228 4045,-143.7269 4045,-143.7269"/>
<polygon fill="#000000" stroke="#000000" points="4041.5001,-143.7269 4045,-153.7269 4048.5001,-143.727 4041.5001,-143.7269"/>
</g>
<!-- PruebaDirectoIntentoPageModule&#45;&gt;Tab1PageModule -->
<g id="edge21" class="edge">
<title>PruebaDirectoIntentoPageModule&#45;&gt;Tab1PageModule</title>
<path fill="none" stroke="#000000" d="M4045,-190.3228C4045,-213.6602 4045,-251 4045,-251 4045,-251 3297.6339,-251 3297.6339,-251"/>
<polygon fill="#000000" stroke="#000000" points="3297.634,-247.5001 3287.6339,-251 3297.6339,-254.5001 3297.634,-247.5001"/>
</g>
<!-- PruebaHoyModalPage -->
<g id="node13" class="node">
<title>PruebaHoyModalPage</title>
<polygon fill="#ffffb3" stroke="#000000" points="1908.2408,-122 1765.7592,-122 1765.7592,-86 1908.2408,-86 1908.2408,-122"/>
<text text-anchor="middle" x="1837" y="-99.8" font-family="Times,serif" font-size="14.00" fill="#000000">PruebaHoyModalPage</text>
</g>
<!-- PruebaHoyModalPageModule -->
<g id="node14" class="node">
<title>PruebaHoyModalPageModule</title>
<polygon fill="#8dd3c7" stroke="#000000" points="1944.2906,-190 1941.2906,-194 1920.2906,-194 1917.2906,-190 1757.7094,-190 1757.7094,-154 1944.2906,-154 1944.2906,-190"/>
<text text-anchor="middle" x="1851" y="-167.8" font-family="Times,serif" font-size="14.00" fill="#000000">PruebaHoyModalPageModule</text>
</g>
<!-- PruebaHoyModalPage&#45;&gt;PruebaHoyModalPageModule -->
<g id="edge8" class="edge">
<title>PruebaHoyModalPage&#45;&gt;PruebaHoyModalPageModule</title>
<path fill="none" stroke="#000000" d="M1837,-122.2228C1837,-122.2228 1837,-143.7269 1837,-143.7269"/>
<polygon fill="#000000" stroke="#000000" points="1833.5001,-143.7269 1837,-153.7269 1840.5001,-143.727 1833.5001,-143.7269"/>
</g>
<!-- PruebaHoyModalPageModule&#45;&gt;Tab2PageModule -->
<g id="edge31" class="edge">
<title>PruebaHoyModalPageModule&#45;&gt;Tab2PageModule</title>
<path fill="none" stroke="#000000" d="M1851,-190.2667C1851,-208.5552 1851,-234 1851,-234 1851,-234 1208.8012,-234 1208.8012,-234"/>
<polygon fill="#000000" stroke="#000000" points="1208.8013,-230.5001 1198.8012,-234 1208.8012,-237.5001 1208.8013,-230.5001"/>
</g>
<!-- SharedModule -->
<g id="node15" class="node">
<title>SharedModule</title>
<polygon fill="#8dd3c7" stroke="#000000" points="2030.4231,-122 2027.4231,-126 2006.4231,-126 2003.4231,-122 1931.5769,-122 1931.5769,-86 2030.4231,-86 2030.4231,-122"/>
<text text-anchor="middle" x="1981" y="-99.8" font-family="Times,serif" font-size="14.00" fill="#000000">SharedModule</text>
</g>
<!-- SharedModule&#45;&gt;PruebaHoyModalPageModule -->
<g id="edge9" class="edge">
<title>SharedModule&#45;&gt;PruebaHoyModalPageModule</title>
<path fill="none" stroke="#000000" d="M1937.9671,-122.2228C1937.9671,-122.2228 1937.9671,-143.7269 1937.9671,-143.7269"/>
<polygon fill="#000000" stroke="#000000" points="1934.4671,-143.7269 1937.9671,-153.7269 1941.4671,-143.727 1934.4671,-143.7269"/>
</g>
<!-- PruebaModalPageModule -->
<g id="node17" class="node">
<title>PruebaModalPageModule</title>
<polygon fill="#8dd3c7" stroke="#000000" points="2825.1839,-190 2822.1839,-194 2801.1839,-194 2798.1839,-190 2662.8161,-190 2662.8161,-154 2825.1839,-154 2825.1839,-190"/>
<text text-anchor="middle" x="2744" y="-167.8" font-family="Times,serif" font-size="14.00" fill="#000000">PruebaModalPageModule</text>
</g>
<!-- SharedModule&#45;&gt;PruebaModalPageModule -->
<g id="edge11" class="edge">
<title>SharedModule&#45;&gt;PruebaModalPageModule</title>
<path fill="none" stroke="#000000" d="M2030.2688,-94C2188.5441,-94 2673.7956,-94 2673.7956,-94 2673.7956,-94 2673.7956,-143.9092 2673.7956,-143.9092"/>
<polygon fill="#000000" stroke="#000000" points="2670.2956,-143.9091 2673.7956,-153.9092 2677.2956,-143.9092 2670.2956,-143.9091"/>
</g>
<!-- FormatDate  -->
<g id="node20" class="node">
<title>FormatDate </title>
<polygon fill="#fb8072" stroke="#000000" points="2308.3662,-190 2221.6338,-190 2221.6338,-154 2308.3662,-154 2308.3662,-190"/>
<text text-anchor="middle" x="2265" y="-167.8" font-family="Times,serif" font-size="14.00" fill="#000000">FormatDate </text>
</g>
<!-- SharedModule&#45;&gt;FormatDate  -->
<g id="edge14" class="edge">
<title>SharedModule&#45;&gt;FormatDate </title>
<path fill="none" stroke="#000000" stroke-dasharray="5,2" d="M2030.469,-115C2111.8369,-115 2265,-115 2265,-115 2265,-115 2265,-143.9648 2265,-143.9648"/>
<polygon fill="#000000" stroke="#000000" points="2261.5001,-143.9648 2265,-153.9648 2268.5001,-143.9649 2261.5001,-143.9648"/>
</g>
<!-- ToHourAndMinutes  -->
<g id="node21" class="node">
<title>ToHourAndMinutes </title>
<polygon fill="#fb8072" stroke="#000000" points="2203.8115,-190 2070.1885,-190 2070.1885,-154 2203.8115,-154 2203.8115,-190"/>
<text text-anchor="middle" x="2137" y="-167.8" font-family="Times,serif" font-size="14.00" fill="#000000">ToHourAndMinutes </text>
</g>
<!-- SharedModule&#45;&gt;ToHourAndMinutes  -->
<g id="edge15" class="edge">
<title>SharedModule&#45;&gt;ToHourAndMinutes </title>
<path fill="none" stroke="#000000" stroke-dasharray="5,2" d="M2008.6946,-122.2228C2008.6946,-142.3652 2008.6946,-172 2008.6946,-172 2008.6946,-172 2059.8411,-172 2059.8411,-172"/>
<polygon fill="#000000" stroke="#000000" points="2059.8412,-175.5001 2069.8411,-172 2059.8411,-168.5001 2059.8412,-175.5001"/>
</g>
<!-- SharedModule&#45;&gt;Tab1PageModule -->
<g id="edge23" class="edge">
<title>SharedModule&#45;&gt;Tab1PageModule</title>
<path fill="none" stroke="#000000" d="M1987.1782,-122.0935C1987.1782,-161.9889 1987.1782,-254 1987.1782,-254 1987.1782,-254 3162.1365,-254 3162.1365,-254"/>
<polygon fill="#000000" stroke="#000000" points="3162.1366,-257.5001 3172.1365,-254 3162.1365,-250.5001 3162.1366,-257.5001"/>
</g>
<!-- SharedModule&#45;&gt;Tab2PageModule -->
<g id="edge32" class="edge">
<title>SharedModule&#45;&gt;Tab2PageModule</title>
<path fill="none" stroke="#000000" d="M1965.6617,-122.0718C1965.6617,-158.6481 1965.6617,-238 1965.6617,-238 1965.6617,-238 1208.6608,-238 1208.6608,-238"/>
<polygon fill="#000000" stroke="#000000" points="1208.6609,-234.5001 1198.6608,-238 1208.6608,-241.5001 1208.6609,-234.5001"/>
</g>
<!-- PruebaModalPage -->
<g id="node16" class="node">
<title>PruebaModalPage</title>
<polygon fill="#ffffb3" stroke="#000000" points="2803.1346,-122 2684.8654,-122 2684.8654,-86 2803.1346,-86 2803.1346,-122"/>
<text text-anchor="middle" x="2744" y="-99.8" font-family="Times,serif" font-size="14.00" fill="#000000">PruebaModalPage</text>
</g>
<!-- PruebaModalPage&#45;&gt;PruebaModalPageModule -->
<g id="edge10" class="edge">
<title>PruebaModalPage&#45;&gt;PruebaModalPageModule</title>
<path fill="none" stroke="#000000" d="M2744,-122.2228C2744,-122.2228 2744,-143.7269 2744,-143.7269"/>
<polygon fill="#000000" stroke="#000000" points="2740.5001,-143.7269 2744,-153.7269 2747.5001,-143.727 2740.5001,-143.7269"/>
</g>
<!-- PruebaModalPageModule&#45;&gt;Tab1PageModule -->
<g id="edge22" class="edge">
<title>PruebaModalPageModule&#45;&gt;Tab1PageModule</title>
<path fill="none" stroke="#000000" d="M2744,-190.0908C2744,-213.1328 2744,-250 2744,-250 2744,-250 3162.3409,-250 3162.3409,-250"/>
<polygon fill="#000000" stroke="#000000" points="3162.341,-253.5001 3172.3409,-250 3162.3409,-246.5001 3162.341,-253.5001"/>
</g>
<!-- FormatDate -->
<g id="node18" class="node">
<title>FormatDate</title>
<polygon fill="#ffffb3" stroke="#000000" points="2563.3655,-190 2480.6345,-190 2480.6345,-154 2563.3655,-154 2563.3655,-190"/>
<text text-anchor="middle" x="2522" y="-167.8" font-family="Times,serif" font-size="14.00" fill="#000000">FormatDate</text>
</g>
<!-- FormatDate&#45;&gt;SharedModule -->
<g id="edge12" class="edge">
<title>FormatDate&#45;&gt;SharedModule</title>
<path fill="none" stroke="#000000" d="M2522,-153.7157C2522,-132.6789 2522,-101 2522,-101 2522,-101 2040.4443,-101 2040.4443,-101"/>
<polygon fill="#000000" stroke="#000000" points="2040.4444,-97.5001 2030.4443,-101 2040.4443,-104.5001 2040.4444,-97.5001"/>
</g>
<!-- ToHourAndMinutes -->
<g id="node19" class="node">
<title>ToHourAndMinutes</title>
<polygon fill="#ffffb3" stroke="#000000" points="2462.3118,-190 2331.6882,-190 2331.6882,-154 2462.3118,-154 2462.3118,-190"/>
<text text-anchor="middle" x="2397" y="-167.8" font-family="Times,serif" font-size="14.00" fill="#000000">ToHourAndMinutes</text>
</g>
<!-- ToHourAndMinutes&#45;&gt;SharedModule -->
<g id="edge13" class="edge">
<title>ToHourAndMinutes&#45;&gt;SharedModule</title>
<path fill="none" stroke="#000000" d="M2397,-153.8314C2397,-134.9102 2397,-108 2397,-108 2397,-108 2040.3543,-108 2040.3543,-108"/>
<polygon fill="#000000" stroke="#000000" points="2040.3543,-104.5001 2030.3543,-108 2040.3542,-111.5001 2040.3543,-104.5001"/>
</g>
<!-- ClasificacionPruebaComponent -->
<g id="node22" class="node">
<title>ClasificacionPruebaComponent</title>
<polygon fill="#ffffb3" stroke="#000000" points="3721.0674,-190 3526.9326,-190 3526.9326,-154 3721.0674,-154 3721.0674,-190"/>
<text text-anchor="middle" x="3624" y="-167.8" font-family="Times,serif" font-size="14.00" fill="#000000">ClasificacionPruebaComponent</text>
</g>
<!-- ClasificacionPruebaComponent&#45;&gt;Tab1PageModule -->
<g id="edge16" class="edge">
<title>ClasificacionPruebaComponent&#45;&gt;Tab1PageModule</title>
<path fill="none" stroke="#000000" d="M3624,-190.1061C3624,-209.3391 3624,-237 3624,-237 3624,-237 3297.7129,-237 3297.7129,-237"/>
<polygon fill="#000000" stroke="#000000" points="3297.713,-233.5001 3287.7129,-237 3297.7129,-240.5001 3297.713,-233.5001"/>
</g>
<!-- PruebaDirectoComponent -->
<g id="node23" class="node">
<title>PruebaDirectoComponent</title>
<polygon fill="#ffffb3" stroke="#000000" points="3509.1825,-190 3346.8175,-190 3346.8175,-154 3509.1825,-154 3509.1825,-190"/>
<text text-anchor="middle" x="3428" y="-167.8" font-family="Times,serif" font-size="14.00" fill="#000000">PruebaDirectoComponent</text>
</g>
<!-- PruebaDirectoComponent&#45;&gt;Tab1PageModule -->
<g id="edge17" class="edge">
<title>PruebaDirectoComponent&#45;&gt;Tab1PageModule</title>
<path fill="none" stroke="#000000" d="M3428,-190.0336C3428,-207.0597 3428,-230 3428,-230 3428,-230 3297.5358,-230 3297.5358,-230"/>
<polygon fill="#000000" stroke="#000000" points="3297.5358,-226.5001 3287.5358,-230 3297.5357,-233.5001 3297.5358,-226.5001"/>
</g>
<!-- PruebasCompeticionComponent -->
<g id="node24" class="node">
<title>PruebasCompeticionComponent</title>
<polygon fill="#ffffb3" stroke="#000000" points="3328.9776,-190 3131.0224,-190 3131.0224,-154 3328.9776,-154 3328.9776,-190"/>
<text text-anchor="middle" x="3230" y="-167.8" font-family="Times,serif" font-size="14.00" fill="#000000">PruebasCompeticionComponent</text>
</g>
<!-- PruebasCompeticionComponent&#45;&gt;Tab1PageModule -->
<g id="edge18" class="edge">
<title>PruebasCompeticionComponent&#45;&gt;Tab1PageModule</title>
<path fill="none" stroke="#000000" d="M3230,-190.2228C3230,-190.2228 3230,-211.7269 3230,-211.7269"/>
<polygon fill="#000000" stroke="#000000" points="3226.5001,-211.7269 3230,-221.7269 3233.5001,-211.727 3226.5001,-211.7269"/>
</g>
<!-- Tab1Page -->
<g id="node25" class="node">
<title>Tab1Page</title>
<polygon fill="#ffffb3" stroke="#000000" points="3112.979,-190 3041.021,-190 3041.021,-154 3112.979,-154 3112.979,-190"/>
<text text-anchor="middle" x="3077" y="-167.8" font-family="Times,serif" font-size="14.00" fill="#000000">Tab1Page</text>
</g>
<!-- Tab1Page&#45;&gt;Tab1PageModule -->
<g id="edge19" class="edge">
<title>Tab1Page&#45;&gt;Tab1PageModule</title>
<path fill="none" stroke="#000000" d="M3077,-190.0267C3077,-210.7672 3077,-242 3077,-242 3077,-242 3162.1573,-242 3162.1573,-242"/>
<polygon fill="#000000" stroke="#000000" points="3162.1573,-245.5001 3172.1573,-242 3162.1572,-238.5001 3162.1573,-245.5001"/>
</g>
<!-- Tab1PageRoutingModule -->
<g id="node27" class="node">
<title>Tab1PageRoutingModule</title>
<polygon fill="#8dd3c7" stroke="#000000" points="3017.147,-190 3014.147,-194 2993.147,-194 2990.147,-190 2856.853,-190 2856.853,-154 3017.147,-154 3017.147,-190"/>
<text text-anchor="middle" x="2937" y="-167.8" font-family="Times,serif" font-size="14.00" fill="#000000">Tab1PageRoutingModule</text>
</g>
<!-- Tab1PageRoutingModule&#45;&gt;Tab1PageModule -->
<g id="edge24" class="edge">
<title>Tab1PageRoutingModule&#45;&gt;Tab1PageModule</title>
<path fill="none" stroke="#000000" d="M2937,-190.2921C2937,-212.2057 2937,-246 2937,-246 2937,-246 3162.4622,-246 3162.4622,-246"/>
<polygon fill="#000000" stroke="#000000" points="3162.4623,-249.5001 3172.4622,-246 3162.4622,-242.5001 3162.4623,-249.5001"/>
</g>
<!-- ClasificacionPruebaHoyComponent -->
<g id="node28" class="node">
<title>ClasificacionPruebaHoyComponent</title>
<polygon fill="#ffffb3" stroke="#000000" points="1470.1741,-190 1251.8259,-190 1251.8259,-154 1470.1741,-154 1470.1741,-190"/>
<text text-anchor="middle" x="1361" y="-167.8" font-family="Times,serif" font-size="14.00" fill="#000000">ClasificacionPruebaHoyComponent</text>
</g>
<!-- ClasificacionPruebaHoyComponent&#45;&gt;Tab2PageModule -->
<g id="edge25" class="edge">
<title>ClasificacionPruebaHoyComponent&#45;&gt;Tab2PageModule</title>
<path fill="none" stroke="#000000" d="M1361,-190.2819C1361,-205.9478 1361,-226 1361,-226 1361,-226 1208.8024,-226 1208.8024,-226"/>
<polygon fill="#000000" stroke="#000000" points="1208.8024,-222.5001 1198.8024,-226 1208.8024,-229.5001 1208.8024,-222.5001"/>
</g>
<!-- PruebaDirectoHoyComponent -->
<g id="node29" class="node">
<title>PruebaDirectoHoyComponent</title>
<polygon fill="#ffffb3" stroke="#000000" points="1234.2892,-190 1047.7108,-190 1047.7108,-154 1234.2892,-154 1234.2892,-190"/>
<text text-anchor="middle" x="1141" y="-167.8" font-family="Times,serif" font-size="14.00" fill="#000000">PruebaDirectoHoyComponent</text>
</g>
<!-- PruebaDirectoHoyComponent&#45;&gt;Tab2PageModule -->
<g id="edge26" class="edge">
<title>PruebaDirectoHoyComponent&#45;&gt;Tab2PageModule</title>
<path fill="none" stroke="#000000" d="M1141,-190.2228C1141,-190.2228 1141,-211.7269 1141,-211.7269"/>
<polygon fill="#000000" stroke="#000000" points="1137.5001,-211.7269 1141,-221.7269 1144.5001,-211.727 1137.5001,-211.7269"/>
</g>
<!-- PruebasCompeticionHoyComponent -->
<g id="node30" class="node">
<title>PruebasCompeticionHoyComponent</title>
<polygon fill="#ffffb3" stroke="#000000" points="1030.0842,-190 807.9158,-190 807.9158,-154 1030.0842,-154 1030.0842,-190"/>
<text text-anchor="middle" x="919" y="-167.8" font-family="Times,serif" font-size="14.00" fill="#000000">PruebasCompeticionHoyComponent</text>
</g>
<!-- PruebasCompeticionHoyComponent&#45;&gt;Tab2PageModule -->
<g id="edge27" class="edge">
<title>PruebasCompeticionHoyComponent&#45;&gt;Tab2PageModule</title>
<path fill="none" stroke="#000000" d="M919,-190.0336C919,-207.0597 919,-230 919,-230 919,-230 1073.2516,-230 1073.2516,-230"/>
<polygon fill="#000000" stroke="#000000" points="1073.2517,-233.5001 1083.2516,-230 1073.2516,-226.5001 1073.2517,-233.5001"/>
</g>
<!-- Tab2Page -->
<g id="node31" class="node">
<title>Tab2Page</title>
<polygon fill="#ffffb3" stroke="#000000" points="789.979,-190 718.021,-190 718.021,-154 789.979,-154 789.979,-190"/>
<text text-anchor="middle" x="754" y="-167.8" font-family="Times,serif" font-size="14.00" fill="#000000">Tab2Page</text>
</g>
<!-- Tab2Page&#45;&gt;Tab2PageModule -->
<g id="edge28" class="edge">
<title>Tab2Page&#45;&gt;Tab2PageModule</title>
<path fill="none" stroke="#000000" d="M754,-190.1061C754,-209.3391 754,-237 754,-237 754,-237 1073.0622,-237 1073.0622,-237"/>
<polygon fill="#000000" stroke="#000000" points="1073.0622,-240.5001 1083.0622,-237 1073.0622,-233.5001 1073.0622,-240.5001"/>
</g>
<!-- Tab2PageRoutingModule -->
<g id="node33" class="node">
<title>Tab2PageRoutingModule</title>
<polygon fill="#8dd3c7" stroke="#000000" points="694.147,-190 691.147,-194 670.147,-194 667.147,-190 533.853,-190 533.853,-154 694.147,-154 694.147,-190"/>
<text text-anchor="middle" x="614" y="-167.8" font-family="Times,serif" font-size="14.00" fill="#000000">Tab2PageRoutingModule</text>
</g>
<!-- Tab2PageRoutingModule&#45;&gt;Tab2PageModule -->
<g id="edge33" class="edge">
<title>Tab2PageRoutingModule&#45;&gt;Tab2PageModule</title>
<path fill="none" stroke="#000000" d="M614,-190.1686C614,-211.498 614,-244 614,-244 614,-244 1073.3466,-244 1073.3466,-244"/>
<polygon fill="#000000" stroke="#000000" points="1073.3467,-247.5001 1083.3466,-244 1073.3466,-240.5001 1073.3467,-247.5001"/>
</g>
<!-- Tab3Page -->
<g id="node34" class="node">
<title>Tab3Page</title>
<polygon fill="#ffffb3" stroke="#000000" points="4266.979,-122 4195.021,-122 4195.021,-86 4266.979,-86 4266.979,-122"/>
<text text-anchor="middle" x="4231" y="-99.8" font-family="Times,serif" font-size="14.00" fill="#000000">Tab3Page</text>
</g>
<!-- Tab3PageModule -->
<g id="node35" class="node">
<title>Tab3PageModule</title>
<polygon fill="#8dd3c7" stroke="#000000" points="4288.5298,-190 4285.5298,-194 4264.5298,-194 4261.5298,-190 4173.4702,-190 4173.4702,-154 4288.5298,-154 4288.5298,-190"/>
<text text-anchor="middle" x="4231" y="-167.8" font-family="Times,serif" font-size="14.00" fill="#000000">Tab3PageModule</text>
</g>
<!-- Tab3Page&#45;&gt;Tab3PageModule -->
<g id="edge34" class="edge">
<title>Tab3Page&#45;&gt;Tab3PageModule</title>
<path fill="none" stroke="#000000" d="M4231,-122.2228C4231,-122.2228 4231,-143.7269 4231,-143.7269"/>
<polygon fill="#000000" stroke="#000000" points="4227.5001,-143.7269 4231,-153.7269 4234.5001,-143.727 4227.5001,-143.7269"/>
</g>
<!-- TabsPage -->
<g id="node36" class="node">
<title>TabsPage</title>
<polygon fill="#ffffb3" stroke="#000000" points="4575.4249,-122 4504.5751,-122 4504.5751,-86 4575.4249,-86 4575.4249,-122"/>
<text text-anchor="middle" x="4540" y="-99.8" font-family="Times,serif" font-size="14.00" fill="#000000">TabsPage</text>
</g>
<!-- TabsPageModule -->
<g id="node37" class="node">
<title>TabsPageModule</title>
<polygon fill="#8dd3c7" stroke="#000000" points="4519.9734,-190 4516.9734,-194 4495.9734,-194 4492.9734,-190 4406.0266,-190 4406.0266,-154 4519.9734,-154 4519.9734,-190"/>
<text text-anchor="middle" x="4463" y="-167.8" font-family="Times,serif" font-size="14.00" fill="#000000">TabsPageModule</text>
</g>
<!-- TabsPage&#45;&gt;TabsPageModule -->
<g id="edge35" class="edge">
<title>TabsPage&#45;&gt;TabsPageModule</title>
<path fill="none" stroke="#000000" d="M4512.3875,-122.2228C4512.3875,-122.2228 4512.3875,-143.7269 4512.3875,-143.7269"/>
<polygon fill="#000000" stroke="#000000" points="4508.8875,-143.7269 4512.3875,-153.7269 4515.8875,-143.727 4508.8875,-143.7269"/>
</g>
<!-- TabsPageRoutingModule -->
<g id="node38" class="node">
<title>TabsPageRoutingModule</title>
<polygon fill="#8dd3c7" stroke="#000000" points="4480.5912,-122 4477.5912,-126 4456.5912,-126 4453.5912,-122 4321.4088,-122 4321.4088,-86 4480.5912,-86 4480.5912,-122"/>
<text text-anchor="middle" x="4401" y="-99.8" font-family="Times,serif" font-size="14.00" fill="#000000">TabsPageRoutingModule</text>
</g>
<!-- TabsPageRoutingModule&#45;&gt;TabsPageModule -->
<g id="edge36" class="edge">
<title>TabsPageRoutingModule&#45;&gt;TabsPageModule</title>
<path fill="none" stroke="#000000" d="M4443.2795,-122.2228C4443.2795,-122.2228 4443.2795,-143.7269 4443.2795,-143.7269"/>
<polygon fill="#000000" stroke="#000000" points="4439.7795,-143.7269 4443.2795,-153.7269 4446.7795,-143.727 4439.7795,-143.7269"/>
</g>
</g>
</svg>
