<?xml version="1.0" encoding="UTF-8" standalone="no"?>
<!DOCTYPE svg PUBLIC "-//W3C//DTD SVG 1.1//EN"
 "http://www.w3.org/Graphics/SVG/1.1/DTD/svg11.dtd">
<!-- Generated by graphviz version 2.40.1 (20161225.0304)
 -->
<!-- Title: dependencies Pages: 1 -->
<svg width="1163pt" height="284pt"
 viewBox="0.00 0.00 1163.00 284.00" xmlns="http://www.w3.org/2000/svg" xmlns:xlink="http://www.w3.org/1999/xlink">
<g id="graph0" class="graph" transform="scale(1 1) rotate(0) translate(4 280)">
<title>dependencies</title>
<polygon fill="#ffffff" stroke="transparent" points="-4,4 -4,-280 1159,-280 1159,4 -4,4"/>
<text text-anchor="start" x="556.5091" y="-42.4" font-family="sans-serif" font-weight="bold" font-size="14.00" fill="#000000">Legend</text>
<polygon fill="#ffffb3" stroke="transparent" points="343.5,-10 343.5,-30 363.5,-30 363.5,-10 343.5,-10"/>
<text text-anchor="start" x="367.129" y="-15.4" font-family="sans-serif" font-size="14.00" fill="#000000"> &#160;Declarations</text>
<polygon fill="#8dd3c7" stroke="transparent" points="456.5,-10 456.5,-30 476.5,-30 476.5,-10 456.5,-10"/>
<text text-anchor="start" x="480.2251" y="-15.4" font-family="sans-serif" font-size="14.00" fill="#000000"> &#160;Module</text>
<polygon fill="#80b1d3" stroke="transparent" points="542.5,-10 542.5,-30 562.5,-30 562.5,-10 542.5,-10"/>
<text text-anchor="start" x="566.2812" y="-15.4" font-family="sans-serif" font-size="14.00" fill="#000000"> &#160;Bootstrap</text>
<polygon fill="#fdb462" stroke="transparent" points="639.5,-10 639.5,-30 659.5,-30 659.5,-10 639.5,-10"/>
<text text-anchor="start" x="663.1732" y="-15.4" font-family="sans-serif" font-size="14.00" fill="#000000"> &#160;Providers</text>
<polygon fill="#fb8072" stroke="transparent" points="735.5,-10 735.5,-30 755.5,-30 755.5,-10 735.5,-10"/>
<text text-anchor="start" x="759.2258" y="-15.4" font-family="sans-serif" font-size="14.00" fill="#000000"> &#160;Exports</text>
<g id="clust1" class="cluster">
<title>cluster_SharedModule</title>
<polygon fill="none" stroke="#000000" stroke-dasharray="1,5" points="8,-70 8,-268 1147,-268 1147,-70 8,-70"/>
</g>
<g id="clust2" class="cluster">
<title>cluster_SharedModule_declarations</title>
<polygon fill="none" stroke="#000000" points="16,-78 16,-130 1139,-130 1139,-78 16,-78"/>
</g>
<g id="clust11" class="cluster">
<title>cluster_SharedModule_exports</title>
<polygon fill="none" stroke="#000000" points="141,-208 141,-260 892,-260 892,-208 141,-208"/>
</g>
<!-- ActionsFooterComponent -->
<g id="node1" class="node">
<title>ActionsFooterComponent</title>
<polygon fill="#ffffb3" stroke="#000000" points="1130.9284,-122 969.0716,-122 969.0716,-86 1130.9284,-86 1130.9284,-122"/>
<text text-anchor="middle" x="1050" y="-99.8" font-family="Times,serif" font-size="14.00" fill="#000000">ActionsFooterComponent</text>
</g>
<!-- SharedModule -->
<g id="node8" class="node">
<title>SharedModule</title>
<polygon fill="#8dd3c7" stroke="#000000" points="539.4231,-187 536.4231,-191 515.4231,-191 512.4231,-187 440.5769,-187 440.5769,-151 539.4231,-151 539.4231,-187"/>
<text text-anchor="middle" x="490" y="-164.8" font-family="Times,serif" font-size="14.00" fill="#000000">SharedModule</text>
</g>
<!-- ActionsFooterComponent&#45;&gt;SharedModule -->
<g id="edge1" class="edge">
<title>ActionsFooterComponent&#45;&gt;SharedModule</title>
<path fill="none" stroke="#000000" d="M1050,-122.1061C1050,-141.3391 1050,-169 1050,-169 1050,-169 549.6963,-169 549.6963,-169"/>
<polygon fill="#000000" stroke="#000000" points="549.6963,-165.5001 539.6963,-169 549.6962,-172.5001 549.6963,-165.5001"/>
</g>
<!-- CampoPopupComponent -->
<g id="node2" class="node">
<title>CampoPopupComponent</title>
<polygon fill="#ffffb3" stroke="#000000" points="951.5574,-122 794.4426,-122 794.4426,-86 951.5574,-86 951.5574,-122"/>
<text text-anchor="middle" x="873" y="-99.8" font-family="Times,serif" font-size="14.00" fill="#000000">CampoPopupComponent</text>
</g>
<!-- CampoPopupComponent&#45;&gt;SharedModule -->
<g id="edge2" class="edge">
<title>CampoPopupComponent&#45;&gt;SharedModule</title>
<path fill="none" stroke="#000000" d="M839.3428,-122.0225C839.3428,-139.3734 839.3428,-163 839.3428,-163 839.3428,-163 549.3113,-163 549.3113,-163"/>
<polygon fill="#000000" stroke="#000000" points="549.3114,-159.5001 539.3113,-163 549.3113,-166.5001 549.3114,-159.5001"/>
</g>
<!-- ConfirmacionPopupComponent -->
<g id="node3" class="node">
<title>ConfirmacionPopupComponent</title>
<polygon fill="#ffffb3" stroke="#000000" points="776.3738,-122 581.6262,-122 581.6262,-86 776.3738,-86 776.3738,-122"/>
<text text-anchor="middle" x="679" y="-99.8" font-family="Times,serif" font-size="14.00" fill="#000000">ConfirmacionPopupComponent</text>
</g>
<!-- ConfirmacionPopupComponent&#45;&gt;SharedModule -->
<g id="edge3" class="edge">
<title>ConfirmacionPopupComponent&#45;&gt;SharedModule</title>
<path fill="none" stroke="#000000" d="M641.3214,-122.2396C641.3214,-137.5706 641.3214,-157 641.3214,-157 641.3214,-157 549.5483,-157 549.5483,-157"/>
<polygon fill="#000000" stroke="#000000" points="549.5483,-153.5001 539.5483,-157 549.5482,-160.5001 549.5483,-153.5001"/>
</g>
<!-- EmptyStateComponent -->
<g id="node4" class="node">
<title>EmptyStateComponent</title>
<polygon fill="#ffffb3" stroke="#000000" points="563.1596,-122 416.8404,-122 416.8404,-86 563.1596,-86 563.1596,-122"/>
<text text-anchor="middle" x="490" y="-99.8" font-family="Times,serif" font-size="14.00" fill="#000000">EmptyStateComponent</text>
</g>
<!-- EmptyStateComponent&#45;&gt;SharedModule -->
<g id="edge4" class="edge">
<title>EmptyStateComponent&#45;&gt;SharedModule</title>
<path fill="none" stroke="#000000" d="M490,-122.1061C490,-122.1061 490,-140.991 490,-140.991"/>
<polygon fill="#000000" stroke="#000000" points="486.5001,-140.9909 490,-150.991 493.5001,-140.991 486.5001,-140.9909"/>
</g>
<!-- FormatDate -->
<g id="node5" class="node">
<title>FormatDate</title>
<polygon fill="#ffffb3" stroke="#000000" points="398.3655,-122 315.6345,-122 315.6345,-86 398.3655,-86 398.3655,-122"/>
<text text-anchor="middle" x="357" y="-99.8" font-family="Times,serif" font-size="14.00" fill="#000000">FormatDate</text>
</g>
<!-- FormatDate&#45;&gt;SharedModule -->
<g id="edge5" class="edge">
<title>FormatDate&#45;&gt;SharedModule</title>
<path fill="none" stroke="#000000" d="M357,-122.2396C357,-137.5706 357,-157 357,-157 357,-157 430.4757,-157 430.4757,-157"/>
<polygon fill="#000000" stroke="#000000" points="430.4757,-160.5001 440.4757,-157 430.4757,-153.5001 430.4757,-160.5001"/>
</g>
<!-- SpinnerComponent -->
<g id="node6" class="node">
<title>SpinnerComponent</title>
<polygon fill="#ffffb3" stroke="#000000" points="297.3809,-122 172.6191,-122 172.6191,-86 297.3809,-86 297.3809,-122"/>
<text text-anchor="middle" x="235" y="-99.8" font-family="Times,serif" font-size="14.00" fill="#000000">SpinnerComponent</text>
</g>
<!-- SpinnerComponent&#45;&gt;SharedModule -->
<g id="edge6" class="edge">
<title>SpinnerComponent&#45;&gt;SharedModule</title>
<path fill="none" stroke="#000000" d="M290.1731,-122.0225C290.1731,-139.3734 290.1731,-163 290.1731,-163 290.1731,-163 430.6046,-163 430.6046,-163"/>
<polygon fill="#000000" stroke="#000000" points="430.6046,-166.5001 440.6046,-163 430.6045,-159.5001 430.6046,-166.5001"/>
</g>
<!-- ToHourAndMinutes -->
<g id="node7" class="node">
<title>ToHourAndMinutes</title>
<polygon fill="#ffffb3" stroke="#000000" points="154.3118,-122 23.6882,-122 23.6882,-86 154.3118,-86 154.3118,-122"/>
<text text-anchor="middle" x="89" y="-99.8" font-family="Times,serif" font-size="14.00" fill="#000000">ToHourAndMinutes</text>
</g>
<!-- ToHourAndMinutes&#45;&gt;SharedModule -->
<g id="edge7" class="edge">
<title>ToHourAndMinutes&#45;&gt;SharedModule</title>
<path fill="none" stroke="#000000" d="M86.4693,-122.1061C86.4693,-141.3391 86.4693,-169 86.4693,-169 86.4693,-169 430.5192,-169 430.5192,-169"/>
<polygon fill="#000000" stroke="#000000" points="430.5193,-172.5001 440.5192,-169 430.5192,-165.5001 430.5193,-172.5001"/>
</g>
<!-- ActionsFooterComponent  -->
<g id="node9" class="node">
<title>ActionsFooterComponent </title>
<polygon fill="#fb8072" stroke="#000000" points="884.4278,-252 719.5722,-252 719.5722,-216 884.4278,-216 884.4278,-252"/>
<text text-anchor="middle" x="802" y="-229.8" font-family="Times,serif" font-size="14.00" fill="#000000">ActionsFooterComponent </text>
</g>
<!-- SharedModule&#45;&gt;ActionsFooterComponent  -->
<g id="edge8" class="edge">
<title>SharedModule&#45;&gt;ActionsFooterComponent </title>
<path fill="none" stroke="#000000" stroke-dasharray="5,2" d="M539.4371,-175C614.3479,-175 747.9865,-175 747.9865,-175 747.9865,-175 747.9865,-205.9775 747.9865,-205.9775"/>
<polygon fill="#000000" stroke="#000000" points="744.4866,-205.9774 747.9865,-215.9775 751.4866,-205.9775 744.4866,-205.9774"/>
</g>
<!-- EmptyStateComponent  -->
<g id="node10" class="node">
<title>EmptyStateComponent </title>
<polygon fill="#fb8072" stroke="#000000" points="701.1593,-252 550.8407,-252 550.8407,-216 701.1593,-216 701.1593,-252"/>
<text text-anchor="middle" x="626" y="-229.8" font-family="Times,serif" font-size="14.00" fill="#000000">EmptyStateComponent </text>
</g>
<!-- SharedModule&#45;&gt;EmptyStateComponent  -->
<g id="edge9" class="edge">
<title>SharedModule&#45;&gt;EmptyStateComponent </title>
<path fill="none" stroke="#000000" stroke-dasharray="5,2" d="M539.4887,-181C549.5497,-181 557.125,-181 557.125,-181 557.125,-181 557.125,-205.7604 557.125,-205.7604"/>
<polygon fill="#000000" stroke="#000000" points="553.6251,-205.7604 557.125,-215.7604 560.6251,-205.7604 553.6251,-205.7604"/>
</g>
<!-- FormatDate  -->
<g id="node11" class="node">
<title>FormatDate </title>
<polygon fill="#fb8072" stroke="#000000" points="533.3662,-252 446.6338,-252 446.6338,-216 533.3662,-216 533.3662,-252"/>
<text text-anchor="middle" x="490" y="-229.8" font-family="Times,serif" font-size="14.00" fill="#000000">FormatDate </text>
</g>
<!-- SharedModule&#45;&gt;FormatDate  -->
<g id="edge10" class="edge">
<title>SharedModule&#45;&gt;FormatDate </title>
<path fill="none" stroke="#000000" stroke-dasharray="5,2" d="M490,-187.1061C490,-187.1061 490,-205.991 490,-205.991"/>
<polygon fill="#000000" stroke="#000000" points="486.5001,-205.9909 490,-215.991 493.5001,-205.991 486.5001,-205.9909"/>
</g>
<!-- SpinnerComponent  -->
<g id="node12" class="node">
<title>SpinnerComponent </title>
<polygon fill="#fb8072" stroke="#000000" points="429.3814,-252 300.6186,-252 300.6186,-216 429.3814,-216 429.3814,-252"/>
<text text-anchor="middle" x="365" y="-229.8" font-family="Times,serif" font-size="14.00" fill="#000000">SpinnerComponent </text>
</g>
<!-- SharedModule&#45;&gt;SpinnerComponent  -->
<g id="edge11" class="edge">
<title>SharedModule&#45;&gt;SpinnerComponent </title>
<path fill="none" stroke="#000000" stroke-dasharray="5,2" d="M440.5521,-181C430.4995,-181 422.9304,-181 422.9304,-181 422.9304,-181 422.9304,-205.7604 422.9304,-205.7604"/>
<polygon fill="#000000" stroke="#000000" points="419.4305,-205.7604 422.9304,-215.7604 426.4305,-205.7604 419.4305,-205.7604"/>
</g>
<!-- ToHourAndMinutes  -->
<g id="node13" class="node">
<title>ToHourAndMinutes </title>
<polygon fill="#fb8072" stroke="#000000" points="282.8115,-252 149.1885,-252 149.1885,-216 282.8115,-216 282.8115,-252"/>
<text text-anchor="middle" x="216" y="-229.8" font-family="Times,serif" font-size="14.00" fill="#000000">ToHourAndMinutes </text>
</g>
<!-- SharedModule&#45;&gt;ToHourAndMinutes  -->
<g id="edge12" class="edge">
<title>SharedModule&#45;&gt;ToHourAndMinutes </title>
<path fill="none" stroke="#000000" stroke-dasharray="5,2" d="M440.6695,-175C364.6971,-175 227.7327,-175 227.7327,-175 227.7327,-175 227.7327,-205.9775 227.7327,-205.9775"/>
<polygon fill="#000000" stroke="#000000" points="224.2327,-205.9774 227.7327,-215.9775 231.2327,-205.9775 224.2327,-205.9774"/>
</g>
</g>
</svg>
