<?xml version="1.0" encoding="UTF-8" standalone="no"?>
<!DOCTYPE svg PUBLIC "-//W3C//DTD SVG 1.1//EN"
 "http://www.w3.org/Graphics/SVG/1.1/DTD/svg11.dtd">
<!-- Generated by graphviz version 2.40.1 (20161225.0304)
 -->
<!-- Title: dependencies Pages: 1 -->
<svg width="785pt" height="211pt"
 viewBox="0.00 0.00 785.00 211.00" xmlns="http://www.w3.org/2000/svg" xmlns:xlink="http://www.w3.org/1999/xlink">
<g id="graph0" class="graph" transform="scale(1 1) rotate(0) translate(4 207)">
<title>dependencies</title>
<polygon fill="#ffffff" stroke="transparent" points="-4,4 -4,-207 781,-207 781,4 -4,4"/>
<text text-anchor="start" x="367.5091" y="-42.4" font-family="sans-serif" font-weight="bold" font-size="14.00" fill="#000000">Legend</text>
<polygon fill="#ffffb3" stroke="transparent" points="154.5,-10 154.5,-30 174.5,-30 174.5,-10 154.5,-10"/>
<text text-anchor="start" x="178.129" y="-15.4" font-family="sans-serif" font-size="14.00" fill="#000000"> &#160;Declarations</text>
<polygon fill="#8dd3c7" stroke="transparent" points="267.5,-10 267.5,-30 287.5,-30 287.5,-10 267.5,-10"/>
<text text-anchor="start" x="291.2251" y="-15.4" font-family="sans-serif" font-size="14.00" fill="#000000"> &#160;Module</text>
<polygon fill="#80b1d3" stroke="transparent" points="353.5,-10 353.5,-30 373.5,-30 373.5,-10 353.5,-10"/>
<text text-anchor="start" x="377.2812" y="-15.4" font-family="sans-serif" font-size="14.00" fill="#000000"> &#160;Bootstrap</text>
<polygon fill="#fdb462" stroke="transparent" points="450.5,-10 450.5,-30 470.5,-30 470.5,-10 450.5,-10"/>
<text text-anchor="start" x="474.1732" y="-15.4" font-family="sans-serif" font-size="14.00" fill="#000000"> &#160;Providers</text>
<polygon fill="#fb8072" stroke="transparent" points="546.5,-10 546.5,-30 566.5,-30 566.5,-10 546.5,-10"/>
<text text-anchor="start" x="570.2258" y="-15.4" font-family="sans-serif" font-size="14.00" fill="#000000"> &#160;Exports</text>
<g id="clust1" class="cluster">
<title>cluster_AtletasModule</title>
<polygon fill="none" stroke="#000000" stroke-dasharray="1,5" points="8,-70 8,-195 769,-195 769,-70 8,-70"/>
</g>
<g id="clust2" class="cluster">
<title>cluster_AtletasModule_declarations</title>
<polygon fill="none" stroke="#000000" points="300,-78 300,-130 761,-130 761,-78 300,-78"/>
</g>
<g id="clust6" class="cluster">
<title>cluster_AtletasModule_imports</title>
<polygon fill="none" stroke="#000000" points="16,-78 16,-130 292,-130 292,-78 16,-78"/>
</g>
<!-- AtletaFormComponent -->
<g id="node1" class="node">
<title>AtletaFormComponent</title>
<polygon fill="#ffffb3" stroke="#000000" points="752.8739,-122 607.1261,-122 607.1261,-86 752.8739,-86 752.8739,-122"/>
<text text-anchor="middle" x="680" y="-99.8" font-family="Times,serif" font-size="14.00" fill="#000000">AtletaFormComponent</text>
</g>
<!-- AtletasModule -->
<g id="node4" class="node">
<title>AtletasModule</title>
<polygon fill="#8dd3c7" stroke="#000000" points="428.7022,-187 425.7022,-191 404.7022,-191 401.7022,-187 329.2978,-187 329.2978,-151 428.7022,-151 428.7022,-187"/>
<text text-anchor="middle" x="379" y="-164.8" font-family="Times,serif" font-size="14.00" fill="#000000">AtletasModule</text>
</g>
<!-- AtletaFormComponent&#45;&gt;AtletasModule -->
<g id="edge1" class="edge">
<title>AtletaFormComponent&#45;&gt;AtletasModule</title>
<path fill="none" stroke="#000000" d="M680,-122.2843C680,-143.3211 680,-175 680,-175 680,-175 438.704,-175 438.704,-175"/>
<polygon fill="#000000" stroke="#000000" points="438.7041,-171.5001 428.704,-175 438.704,-178.5001 438.7041,-171.5001"/>
</g>
<!-- AtletasComponent -->
<g id="node2" class="node">
<title>AtletasComponent</title>
<polygon fill="#ffffb3" stroke="#000000" points="589.4846,-122 468.5154,-122 468.5154,-86 589.4846,-86 589.4846,-122"/>
<text text-anchor="middle" x="529" y="-99.8" font-family="Times,serif" font-size="14.00" fill="#000000">AtletasComponent</text>
</g>
<!-- AtletasComponent&#45;&gt;AtletasModule -->
<g id="edge2" class="edge">
<title>AtletasComponent&#45;&gt;AtletasModule</title>
<path fill="none" stroke="#000000" d="M529,-122.0225C529,-139.3734 529,-163 529,-163 529,-163 438.9478,-163 438.9478,-163"/>
<polygon fill="#000000" stroke="#000000" points="438.9479,-159.5001 428.9478,-163 438.9478,-166.5001 438.9479,-159.5001"/>
</g>
<!-- AtletasListComponent -->
<g id="node3" class="node">
<title>AtletasListComponent</title>
<polygon fill="#ffffb3" stroke="#000000" points="450.2632,-122 307.7368,-122 307.7368,-86 450.2632,-86 450.2632,-122"/>
<text text-anchor="middle" x="379" y="-99.8" font-family="Times,serif" font-size="14.00" fill="#000000">AtletasListComponent</text>
</g>
<!-- AtletasListComponent&#45;&gt;AtletasModule -->
<g id="edge3" class="edge">
<title>AtletasListComponent&#45;&gt;AtletasModule</title>
<path fill="none" stroke="#000000" d="M379,-122.1061C379,-122.1061 379,-140.991 379,-140.991"/>
<polygon fill="#000000" stroke="#000000" points="375.5001,-140.9909 379,-150.991 382.5001,-140.991 375.5001,-140.9909"/>
</g>
<!-- AtletasRoutingModule -->
<g id="node5" class="node">
<title>AtletasRoutingModule</title>
<polygon fill="#8dd3c7" stroke="#000000" points="284.3202,-122 281.3202,-126 260.3202,-126 257.3202,-122 139.6798,-122 139.6798,-86 284.3202,-86 284.3202,-122"/>
<text text-anchor="middle" x="212" y="-99.8" font-family="Times,serif" font-size="14.00" fill="#000000">AtletasRoutingModule</text>
</g>
<!-- AtletasRoutingModule&#45;&gt;AtletasModule -->
<g id="edge4" class="edge">
<title>AtletasRoutingModule&#45;&gt;AtletasModule</title>
<path fill="none" stroke="#000000" d="M212,-122.0225C212,-139.3734 212,-163 212,-163 212,-163 319.3466,-163 319.3466,-163"/>
<polygon fill="#000000" stroke="#000000" points="319.3467,-166.5001 329.3466,-163 319.3466,-159.5001 319.3467,-166.5001"/>
</g>
<!-- SharedModule -->
<g id="node6" class="node">
<title>SharedModule</title>
<polygon fill="#8dd3c7" stroke="#000000" points="122.4231,-122 119.4231,-126 98.4231,-126 95.4231,-122 23.5769,-122 23.5769,-86 122.4231,-86 122.4231,-122"/>
<text text-anchor="middle" x="73" y="-99.8" font-family="Times,serif" font-size="14.00" fill="#000000">SharedModule</text>
</g>
<!-- SharedModule&#45;&gt;AtletasModule -->
<g id="edge5" class="edge">
<title>SharedModule&#45;&gt;AtletasModule</title>
<path fill="none" stroke="#000000" d="M73,-122.2843C73,-143.3211 73,-175 73,-175 73,-175 319.1548,-175 319.1548,-175"/>
<polygon fill="#000000" stroke="#000000" points="319.1548,-178.5001 329.1548,-175 319.1547,-171.5001 319.1548,-178.5001"/>
</g>
</g>
</svg>
