<?xml version="1.0" encoding="UTF-8" standalone="no"?>
<!DOCTYPE svg PUBLIC "-//W3C//DTD SVG 1.1//EN"
 "http://www.w3.org/Graphics/SVG/1.1/DTD/svg11.dtd">
<!-- Generated by graphviz version 2.40.1 (20161225.0304)
 -->
<!-- Title: dependencies Pages: 1 -->
<svg width="1625pt" height="211pt"
 viewBox="0.00 0.00 1625.00 211.00" xmlns="http://www.w3.org/2000/svg" xmlns:xlink="http://www.w3.org/1999/xlink">
<g id="graph0" class="graph" transform="scale(1 1) rotate(0) translate(4 207)">
<title>dependencies</title>
<polygon fill="#ffffff" stroke="transparent" points="-4,4 -4,-207 1621,-207 1621,4 -4,4"/>
<text text-anchor="start" x="787.5091" y="-42.4" font-family="sans-serif" font-weight="bold" font-size="14.00" fill="#000000">Legend</text>
<polygon fill="#ffffb3" stroke="transparent" points="574.5,-10 574.5,-30 594.5,-30 594.5,-10 574.5,-10"/>
<text text-anchor="start" x="598.129" y="-15.4" font-family="sans-serif" font-size="14.00" fill="#000000"> &#160;Declarations</text>
<polygon fill="#8dd3c7" stroke="transparent" points="687.5,-10 687.5,-30 707.5,-30 707.5,-10 687.5,-10"/>
<text text-anchor="start" x="711.2251" y="-15.4" font-family="sans-serif" font-size="14.00" fill="#000000"> &#160;Module</text>
<polygon fill="#80b1d3" stroke="transparent" points="773.5,-10 773.5,-30 793.5,-30 793.5,-10 773.5,-10"/>
<text text-anchor="start" x="797.2812" y="-15.4" font-family="sans-serif" font-size="14.00" fill="#000000"> &#160;Bootstrap</text>
<polygon fill="#fdb462" stroke="transparent" points="870.5,-10 870.5,-30 890.5,-30 890.5,-10 870.5,-10"/>
<text text-anchor="start" x="894.1732" y="-15.4" font-family="sans-serif" font-size="14.00" fill="#000000"> &#160;Providers</text>
<polygon fill="#fb8072" stroke="transparent" points="966.5,-10 966.5,-30 986.5,-30 986.5,-10 966.5,-10"/>
<text text-anchor="start" x="990.2258" y="-15.4" font-family="sans-serif" font-size="14.00" fill="#000000"> &#160;Exports</text>
<g id="clust1" class="cluster">
<title>cluster_Tab1PageModule</title>
<polygon fill="none" stroke="#000000" stroke-dasharray="1,5" points="8,-70 8,-195 1609,-195 1609,-70 8,-70"/>
</g>
<g id="clust2" class="cluster">
<title>cluster_Tab1PageModule_declarations</title>
<polygon fill="none" stroke="#000000" points="905,-78 905,-130 1601,-130 1601,-78 905,-78"/>
</g>
<g id="clust7" class="cluster">
<title>cluster_Tab1PageModule_imports</title>
<polygon fill="none" stroke="#000000" points="16,-78 16,-130 897,-130 897,-78 16,-78"/>
</g>
<!-- ClasificacionPruebaComponent -->
<g id="node1" class="node">
<title>ClasificacionPruebaComponent</title>
<polygon fill="#ffffb3" stroke="#000000" points="1593.0674,-122 1398.9326,-122 1398.9326,-86 1593.0674,-86 1593.0674,-122"/>
<text text-anchor="middle" x="1496" y="-99.8" font-family="Times,serif" font-size="14.00" fill="#000000">ClasificacionPruebaComponent</text>
</g>
<!-- Tab1PageModule -->
<g id="node5" class="node">
<title>Tab1PageModule</title>
<polygon fill="#8dd3c7" stroke="#000000" points="864.5298,-187 861.5298,-191 840.5298,-191 837.5298,-187 749.4702,-187 749.4702,-151 864.5298,-151 864.5298,-187"/>
<text text-anchor="middle" x="807" y="-164.8" font-family="Times,serif" font-size="14.00" fill="#000000">Tab1PageModule</text>
</g>
<!-- ClasificacionPruebaComponent&#45;&gt;Tab1PageModule -->
<g id="edge1" class="edge">
<title>ClasificacionPruebaComponent&#45;&gt;Tab1PageModule</title>
<path fill="none" stroke="#000000" d="M1496,-122.0109C1496,-144.4852 1496,-180 1496,-180 1496,-180 874.5587,-180 874.5587,-180"/>
<polygon fill="#000000" stroke="#000000" points="874.5587,-176.5001 864.5587,-180 874.5586,-183.5001 874.5587,-176.5001"/>
</g>
<!-- PruebaDirectoComponent -->
<g id="node2" class="node">
<title>PruebaDirectoComponent</title>
<polygon fill="#ffffb3" stroke="#000000" points="1381.1825,-122 1218.8175,-122 1218.8175,-86 1381.1825,-86 1381.1825,-122"/>
<text text-anchor="middle" x="1300" y="-99.8" font-family="Times,serif" font-size="14.00" fill="#000000">PruebaDirectoComponent</text>
</g>
<!-- PruebaDirectoComponent&#45;&gt;Tab1PageModule -->
<g id="edge2" class="edge">
<title>PruebaDirectoComponent&#45;&gt;Tab1PageModule</title>
<path fill="none" stroke="#000000" d="M1300,-122.1289C1300,-142.5724 1300,-173 1300,-173 1300,-173 875.0031,-173 875.0031,-173"/>
<polygon fill="#000000" stroke="#000000" points="875.0031,-169.5001 865.0031,-173 875.003,-176.5001 875.0031,-169.5001"/>
</g>
<!-- PruebasCompeticionComponent -->
<g id="node3" class="node">
<title>PruebasCompeticionComponent</title>
<polygon fill="#ffffb3" stroke="#000000" points="1200.9776,-122 1003.0224,-122 1003.0224,-86 1200.9776,-86 1200.9776,-122"/>
<text text-anchor="middle" x="1102" y="-99.8" font-family="Times,serif" font-size="14.00" fill="#000000">PruebasCompeticionComponent</text>
</g>
<!-- PruebasCompeticionComponent&#45;&gt;Tab1PageModule -->
<g id="edge3" class="edge">
<title>PruebasCompeticionComponent&#45;&gt;Tab1PageModule</title>
<path fill="none" stroke="#000000" d="M1102,-122.2667C1102,-140.5552 1102,-166 1102,-166 1102,-166 874.5793,-166 874.5793,-166"/>
<polygon fill="#000000" stroke="#000000" points="874.5793,-162.5001 864.5793,-166 874.5792,-169.5001 874.5793,-162.5001"/>
</g>
<!-- Tab1Page -->
<g id="node4" class="node">
<title>Tab1Page</title>
<polygon fill="#ffffb3" stroke="#000000" points="984.979,-122 913.021,-122 913.021,-86 984.979,-86 984.979,-122"/>
<text text-anchor="middle" x="949" y="-99.8" font-family="Times,serif" font-size="14.00" fill="#000000">Tab1Page</text>
</g>
<!-- Tab1Page&#45;&gt;Tab1PageModule -->
<g id="edge4" class="edge">
<title>Tab1Page&#45;&gt;Tab1PageModule</title>
<path fill="none" stroke="#000000" d="M949,-122.0091C949,-138.0494 949,-159 949,-159 949,-159 874.7568,-159 874.7568,-159"/>
<polygon fill="#000000" stroke="#000000" points="874.7569,-155.5001 864.7568,-159 874.7568,-162.5001 874.7569,-155.5001"/>
</g>
<!-- MarcasModalPageModule -->
<g id="node6" class="node">
<title>MarcasModalPageModule</title>
<polygon fill="#8dd3c7" stroke="#000000" points="889.0057,-122 886.0057,-126 865.0057,-126 862.0057,-122 724.9943,-122 724.9943,-86 889.0057,-86 889.0057,-122"/>
<text text-anchor="middle" x="807" y="-99.8" font-family="Times,serif" font-size="14.00" fill="#000000">MarcasModalPageModule</text>
</g>
<!-- MarcasModalPageModule&#45;&gt;Tab1PageModule -->
<g id="edge5" class="edge">
<title>MarcasModalPageModule&#45;&gt;Tab1PageModule</title>
<path fill="none" stroke="#000000" d="M807,-122.1061C807,-122.1061 807,-140.991 807,-140.991"/>
<polygon fill="#000000" stroke="#000000" points="803.5001,-140.9909 807,-150.991 810.5001,-140.991 803.5001,-140.9909"/>
</g>
<!-- PruebaDirectoIntentoPageModule -->
<g id="node7" class="node">
<title>PruebaDirectoIntentoPageModule</title>
<polygon fill="#8dd3c7" stroke="#000000" points="706.7682,-122 703.7682,-126 682.7682,-126 679.7682,-122 499.2318,-122 499.2318,-86 706.7682,-86 706.7682,-122"/>
<text text-anchor="middle" x="603" y="-99.8" font-family="Times,serif" font-size="14.00" fill="#000000">PruebaDirectoIntentoPageModule</text>
</g>
<!-- PruebaDirectoIntentoPageModule&#45;&gt;Tab1PageModule -->
<g id="edge6" class="edge">
<title>PruebaDirectoIntentoPageModule&#45;&gt;Tab1PageModule</title>
<path fill="none" stroke="#000000" d="M603,-122.0091C603,-138.0494 603,-159 603,-159 603,-159 739.3598,-159 739.3598,-159"/>
<polygon fill="#000000" stroke="#000000" points="739.3598,-162.5001 749.3598,-159 739.3597,-155.5001 739.3598,-162.5001"/>
</g>
<!-- PruebaModalPageModule -->
<g id="node8" class="node">
<title>PruebaModalPageModule</title>
<polygon fill="#8dd3c7" stroke="#000000" points="481.1839,-122 478.1839,-126 457.1839,-126 454.1839,-122 318.8161,-122 318.8161,-86 481.1839,-86 481.1839,-122"/>
<text text-anchor="middle" x="400" y="-99.8" font-family="Times,serif" font-size="14.00" fill="#000000">PruebaModalPageModule</text>
</g>
<!-- PruebaModalPageModule&#45;&gt;Tab1PageModule -->
<g id="edge7" class="edge">
<title>PruebaModalPageModule&#45;&gt;Tab1PageModule</title>
<path fill="none" stroke="#000000" d="M400,-122.2667C400,-140.5552 400,-166 400,-166 400,-166 739.1191,-166 739.1191,-166"/>
<polygon fill="#000000" stroke="#000000" points="739.1191,-169.5001 749.1191,-166 739.119,-162.5001 739.1191,-169.5001"/>
</g>
<!-- SharedModule -->
<g id="node9" class="node">
<title>SharedModule</title>
<polygon fill="#8dd3c7" stroke="#000000" points="301.4231,-122 298.4231,-126 277.4231,-126 274.4231,-122 202.5769,-122 202.5769,-86 301.4231,-86 301.4231,-122"/>
<text text-anchor="middle" x="252" y="-99.8" font-family="Times,serif" font-size="14.00" fill="#000000">SharedModule</text>
</g>
<!-- SharedModule&#45;&gt;Tab1PageModule -->
<g id="edge8" class="edge">
<title>SharedModule&#45;&gt;Tab1PageModule</title>
<path fill="none" stroke="#000000" d="M252,-122.1289C252,-142.5724 252,-173 252,-173 252,-173 739.436,-173 739.436,-173"/>
<polygon fill="#000000" stroke="#000000" points="739.436,-176.5001 749.436,-173 739.436,-169.5001 739.436,-176.5001"/>
</g>
<!-- Tab1PageRoutingModule -->
<g id="node10" class="node">
<title>Tab1PageRoutingModule</title>
<polygon fill="#8dd3c7" stroke="#000000" points="184.147,-122 181.147,-126 160.147,-126 157.147,-122 23.853,-122 23.853,-86 184.147,-86 184.147,-122"/>
<text text-anchor="middle" x="104" y="-99.8" font-family="Times,serif" font-size="14.00" fill="#000000">Tab1PageRoutingModule</text>
</g>
<!-- Tab1PageRoutingModule&#45;&gt;Tab1PageModule -->
<g id="edge9" class="edge">
<title>Tab1PageRoutingModule&#45;&gt;Tab1PageModule</title>
<path fill="none" stroke="#000000" d="M104,-122.0109C104,-144.4852 104,-180 104,-180 104,-180 739.1718,-180 739.1718,-180"/>
<polygon fill="#000000" stroke="#000000" points="739.1719,-183.5001 749.1718,-180 739.1718,-176.5001 739.1719,-183.5001"/>
</g>
</g>
</svg>
