<?xml version="1.0" encoding="UTF-8" standalone="no"?>
<!DOCTYPE svg PUBLIC "-//W3C//DTD SVG 1.1//EN"
 "http://www.w3.org/Graphics/SVG/1.1/DTD/svg11.dtd">
<!-- Generated by graphviz version 2.40.1 (20161225.0304)
 -->
<!-- Title: dependencies Pages: 1 -->
<svg width="908pt" height="211pt"
 viewBox="0.00 0.00 908.00 211.00" xmlns="http://www.w3.org/2000/svg" xmlns:xlink="http://www.w3.org/1999/xlink">
<g id="graph0" class="graph" transform="scale(1 1) rotate(0) translate(4 207)">
<title>dependencies</title>
<polygon fill="#ffffff" stroke="transparent" points="-4,4 -4,-207 904,-207 904,4 -4,4"/>
<text text-anchor="start" x="429.0091" y="-42.4" font-family="sans-serif" font-weight="bold" font-size="14.00" fill="#000000">Legend</text>
<polygon fill="#ffffb3" stroke="transparent" points="216,-10 216,-30 236,-30 236,-10 216,-10"/>
<text text-anchor="start" x="239.629" y="-15.4" font-family="sans-serif" font-size="14.00" fill="#000000"> &#160;Declarations</text>
<polygon fill="#8dd3c7" stroke="transparent" points="329,-10 329,-30 349,-30 349,-10 329,-10"/>
<text text-anchor="start" x="352.7251" y="-15.4" font-family="sans-serif" font-size="14.00" fill="#000000"> &#160;Module</text>
<polygon fill="#80b1d3" stroke="transparent" points="415,-10 415,-30 435,-30 435,-10 415,-10"/>
<text text-anchor="start" x="438.7812" y="-15.4" font-family="sans-serif" font-size="14.00" fill="#000000"> &#160;Bootstrap</text>
<polygon fill="#fdb462" stroke="transparent" points="512,-10 512,-30 532,-30 532,-10 512,-10"/>
<text text-anchor="start" x="535.6732" y="-15.4" font-family="sans-serif" font-size="14.00" fill="#000000"> &#160;Providers</text>
<polygon fill="#fb8072" stroke="transparent" points="608,-10 608,-30 628,-30 628,-10 608,-10"/>
<text text-anchor="start" x="631.7258" y="-15.4" font-family="sans-serif" font-size="14.00" fill="#000000"> &#160;Exports</text>
<g id="clust1" class="cluster">
<title>cluster_TiposPruebaModule</title>
<polygon fill="none" stroke="#000000" stroke-dasharray="1,5" points="8,-70 8,-195 892,-195 892,-70 8,-70"/>
</g>
<g id="clust2" class="cluster">
<title>cluster_TiposPruebaModule_declarations</title>
<polygon fill="none" stroke="#000000" points="324,-78 324,-130 884,-130 884,-78 324,-78"/>
</g>
<g id="clust6" class="cluster">
<title>cluster_TiposPruebaModule_imports</title>
<polygon fill="none" stroke="#000000" points="16,-78 16,-130 316,-130 316,-78 16,-78"/>
</g>
<!-- TipoPruebaPopupComponent -->
<g id="node1" class="node">
<title>TipoPruebaPopupComponent</title>
<polygon fill="#ffffb3" stroke="#000000" points="876.4311,-122 693.5689,-122 693.5689,-86 876.4311,-86 876.4311,-122"/>
<text text-anchor="middle" x="785" y="-99.8" font-family="Times,serif" font-size="14.00" fill="#000000">TipoPruebaPopupComponent</text>
</g>
<!-- TiposPruebaModule -->
<g id="node4" class="node">
<title>TiposPruebaModule</title>
<polygon fill="#8dd3c7" stroke="#000000" points="484.3104,-187 481.3104,-191 460.3104,-191 457.3104,-187 353.6896,-187 353.6896,-151 484.3104,-151 484.3104,-187"/>
<text text-anchor="middle" x="419" y="-164.8" font-family="Times,serif" font-size="14.00" fill="#000000">TiposPruebaModule</text>
</g>
<!-- TipoPruebaPopupComponent&#45;&gt;TiposPruebaModule -->
<g id="edge1" class="edge">
<title>TipoPruebaPopupComponent&#45;&gt;TiposPruebaModule</title>
<path fill="none" stroke="#000000" d="M785,-122.2843C785,-143.3211 785,-175 785,-175 785,-175 494.4335,-175 494.4335,-175"/>
<polygon fill="#000000" stroke="#000000" points="494.4335,-171.5001 484.4335,-175 494.4334,-178.5001 494.4335,-171.5001"/>
</g>
<!-- TiposPruebaComponent -->
<g id="node2" class="node">
<title>TiposPruebaComponent</title>
<polygon fill="#ffffb3" stroke="#000000" points="676.0926,-122 523.9074,-122 523.9074,-86 676.0926,-86 676.0926,-122"/>
<text text-anchor="middle" x="600" y="-99.8" font-family="Times,serif" font-size="14.00" fill="#000000">TiposPruebaComponent</text>
</g>
<!-- TiposPruebaComponent&#45;&gt;TiposPruebaModule -->
<g id="edge2" class="edge">
<title>TiposPruebaComponent&#45;&gt;TiposPruebaModule</title>
<path fill="none" stroke="#000000" d="M600,-122.0225C600,-139.3734 600,-163 600,-163 600,-163 494.3452,-163 494.3452,-163"/>
<polygon fill="#000000" stroke="#000000" points="494.3452,-159.5001 484.3452,-163 494.3451,-166.5001 494.3452,-159.5001"/>
</g>
<!-- TiposPruebaListComponent -->
<g id="node3" class="node">
<title>TiposPruebaListComponent</title>
<polygon fill="#ffffb3" stroke="#000000" points="505.871,-122 332.129,-122 332.129,-86 505.871,-86 505.871,-122"/>
<text text-anchor="middle" x="419" y="-99.8" font-family="Times,serif" font-size="14.00" fill="#000000">TiposPruebaListComponent</text>
</g>
<!-- TiposPruebaListComponent&#45;&gt;TiposPruebaModule -->
<g id="edge3" class="edge">
<title>TiposPruebaListComponent&#45;&gt;TiposPruebaModule</title>
<path fill="none" stroke="#000000" d="M419,-122.1061C419,-122.1061 419,-140.991 419,-140.991"/>
<polygon fill="#000000" stroke="#000000" points="415.5001,-140.9909 419,-150.991 422.5001,-140.991 415.5001,-140.9909"/>
</g>
<!-- DisciplinasRoutingModule -->
<g id="node5" class="node">
<title>DisciplinasRoutingModule</title>
<polygon fill="#8dd3c7" stroke="#000000" points="307.6554,-122 304.6554,-126 283.6554,-126 280.6554,-122 140.3446,-122 140.3446,-86 307.6554,-86 307.6554,-122"/>
<text text-anchor="middle" x="224" y="-99.8" font-family="Times,serif" font-size="14.00" fill="#000000">DisciplinasRoutingModule</text>
</g>
<!-- DisciplinasRoutingModule&#45;&gt;TiposPruebaModule -->
<g id="edge4" class="edge">
<title>DisciplinasRoutingModule&#45;&gt;TiposPruebaModule</title>
<path fill="none" stroke="#000000" d="M224,-122.0225C224,-139.3734 224,-163 224,-163 224,-163 343.7967,-163 343.7967,-163"/>
<polygon fill="#000000" stroke="#000000" points="343.7968,-166.5001 353.7967,-163 343.7967,-159.5001 343.7968,-166.5001"/>
</g>
<!-- SharedModule -->
<g id="node6" class="node">
<title>SharedModule</title>
<polygon fill="#8dd3c7" stroke="#000000" points="122.4231,-122 119.4231,-126 98.4231,-126 95.4231,-122 23.5769,-122 23.5769,-86 122.4231,-86 122.4231,-122"/>
<text text-anchor="middle" x="73" y="-99.8" font-family="Times,serif" font-size="14.00" fill="#000000">SharedModule</text>
</g>
<!-- SharedModule&#45;&gt;TiposPruebaModule -->
<g id="edge5" class="edge">
<title>SharedModule&#45;&gt;TiposPruebaModule</title>
<path fill="none" stroke="#000000" d="M73,-122.2843C73,-143.3211 73,-175 73,-175 73,-175 343.5133,-175 343.5133,-175"/>
<polygon fill="#000000" stroke="#000000" points="343.5133,-178.5001 353.5133,-175 343.5132,-171.5001 343.5133,-178.5001"/>
</g>
</g>
</svg>
