<?xml version="1.0" encoding="UTF-8" standalone="no"?>
<!DOCTYPE svg PUBLIC "-//W3C//DTD SVG 1.1//EN"
 "http://www.w3.org/Graphics/SVG/1.1/DTD/svg11.dtd">
<!-- Generated by graphviz version 2.40.1 (20161225.0304)
 -->
<!-- Title: dependencies Pages: 1 -->
<svg width="504pt" height="284pt"
 viewBox="0.00 0.00 504.00 284.00" xmlns="http://www.w3.org/2000/svg" xmlns:xlink="http://www.w3.org/1999/xlink">
<g id="graph0" class="graph" transform="scale(1 1) rotate(0) translate(4 280)">
<title>dependencies</title>
<polygon fill="#ffffff" stroke="transparent" points="-4,4 -4,-280 500,-280 500,4 -4,4"/>
<text text-anchor="start" x="227.0091" y="-42.4" font-family="sans-serif" font-weight="bold" font-size="14.00" fill="#000000">Legend</text>
<polygon fill="#ffffb3" stroke="transparent" points="14,-10 14,-30 34,-30 34,-10 14,-10"/>
<text text-anchor="start" x="37.629" y="-15.4" font-family="sans-serif" font-size="14.00" fill="#000000"> &#160;Declarations</text>
<polygon fill="#8dd3c7" stroke="transparent" points="127,-10 127,-30 147,-30 147,-10 127,-10"/>
<text text-anchor="start" x="150.7251" y="-15.4" font-family="sans-serif" font-size="14.00" fill="#000000"> &#160;Module</text>
<polygon fill="#80b1d3" stroke="transparent" points="213,-10 213,-30 233,-30 233,-10 213,-10"/>
<text text-anchor="start" x="236.7812" y="-15.4" font-family="sans-serif" font-size="14.00" fill="#000000"> &#160;Bootstrap</text>
<polygon fill="#fdb462" stroke="transparent" points="310,-10 310,-30 330,-30 330,-10 310,-10"/>
<text text-anchor="start" x="333.6732" y="-15.4" font-family="sans-serif" font-size="14.00" fill="#000000"> &#160;Providers</text>
<polygon fill="#fb8072" stroke="transparent" points="406,-10 406,-30 426,-30 426,-10 406,-10"/>
<text text-anchor="start" x="429.7258" y="-15.4" font-family="sans-serif" font-size="14.00" fill="#000000"> &#160;Exports</text>
<g id="clust1" class="cluster">
<title>cluster_SharedModule</title>
<polygon fill="none" stroke="#000000" stroke-dasharray="1,5" points="113,-70 113,-268 383,-268 383,-70 113,-70"/>
</g>
<g id="clust2" class="cluster">
<title>cluster_SharedModule_declarations</title>
<polygon fill="none" stroke="#000000" points="125,-78 125,-130 372,-130 372,-78 125,-78"/>
</g>
<g id="clust6" class="cluster">
<title>cluster_SharedModule_exports</title>
<polygon fill="none" stroke="#000000" points="121,-208 121,-260 375,-260 375,-208 121,-208"/>
</g>
<!-- FormatDate -->
<g id="node1" class="node">
<title>FormatDate</title>
<polygon fill="#ffffb3" stroke="#000000" points="364.3655,-122 281.6345,-122 281.6345,-86 364.3655,-86 364.3655,-122"/>
<text text-anchor="middle" x="323" y="-99.8" font-family="Times,serif" font-size="14.00" fill="#000000">FormatDate</text>
</g>
<!-- SharedModule -->
<g id="node3" class="node">
<title>SharedModule</title>
<polygon fill="#8dd3c7" stroke="#000000" points="248.4231,-187 245.4231,-191 224.4231,-191 221.4231,-187 149.5769,-187 149.5769,-151 248.4231,-151 248.4231,-187"/>
<text text-anchor="middle" x="199" y="-164.8" font-family="Times,serif" font-size="14.00" fill="#000000">SharedModule</text>
</g>
<!-- FormatDate&#45;&gt;SharedModule -->
<g id="edge1" class="edge">
<title>FormatDate&#45;&gt;SharedModule</title>
<path fill="none" stroke="#000000" d="M336.8109,-122.0225C336.8109,-139.3734 336.8109,-163 336.8109,-163 336.8109,-163 258.3636,-163 258.3636,-163"/>
<polygon fill="#000000" stroke="#000000" points="258.3637,-159.5001 248.3636,-163 258.3636,-166.5001 258.3637,-159.5001"/>
</g>
<!-- ToHourAndMinutes -->
<g id="node2" class="node">
<title>ToHourAndMinutes</title>
<polygon fill="#ffffb3" stroke="#000000" points="263.3118,-122 132.6882,-122 132.6882,-86 263.3118,-86 263.3118,-122"/>
<text text-anchor="middle" x="198" y="-99.8" font-family="Times,serif" font-size="14.00" fill="#000000">ToHourAndMinutes</text>
</g>
<!-- ToHourAndMinutes&#45;&gt;SharedModule -->
<g id="edge2" class="edge">
<title>ToHourAndMinutes&#45;&gt;SharedModule</title>
<path fill="none" stroke="#000000" d="M199,-122.1061C199,-122.1061 199,-140.991 199,-140.991"/>
<polygon fill="#000000" stroke="#000000" points="195.5001,-140.9909 199,-150.991 202.5001,-140.991 195.5001,-140.9909"/>
</g>
<!-- FormatDate  -->
<g id="node4" class="node">
<title>FormatDate </title>
<polygon fill="#fb8072" stroke="#000000" points="367.3662,-252 280.6338,-252 280.6338,-216 367.3662,-216 367.3662,-252"/>
<text text-anchor="middle" x="324" y="-229.8" font-family="Times,serif" font-size="14.00" fill="#000000">FormatDate </text>
</g>
<!-- SharedModule&#45;&gt;FormatDate  -->
<g id="edge3" class="edge">
<title>SharedModule&#45;&gt;FormatDate </title>
<path fill="none" stroke="#000000" stroke-dasharray="5,2" d="M248.2934,-175C277.6318,-175 309.1891,-175 309.1891,-175 309.1891,-175 309.1891,-205.9775 309.1891,-205.9775"/>
<polygon fill="#000000" stroke="#000000" points="305.6892,-205.9774 309.1891,-215.9775 312.6892,-205.9775 305.6892,-205.9774"/>
</g>
<!-- ToHourAndMinutes  -->
<g id="node5" class="node">
<title>ToHourAndMinutes </title>
<polygon fill="#fb8072" stroke="#000000" points="262.8115,-252 129.1885,-252 129.1885,-216 262.8115,-216 262.8115,-252"/>
<text text-anchor="middle" x="196" y="-229.8" font-family="Times,serif" font-size="14.00" fill="#000000">ToHourAndMinutes </text>
</g>
<!-- SharedModule&#45;&gt;ToHourAndMinutes  -->
<g id="edge4" class="edge">
<title>SharedModule&#45;&gt;ToHourAndMinutes </title>
<path fill="none" stroke="#000000" stroke-dasharray="5,2" d="M199,-187.1061C199,-187.1061 199,-205.991 199,-205.991"/>
<polygon fill="#000000" stroke="#000000" points="195.5001,-205.9909 199,-215.991 202.5001,-205.991 195.5001,-205.9909"/>
</g>
</g>
</svg>
