<?xml version="1.0" encoding="UTF-8" standalone="no"?>
<!DOCTYPE svg PUBLIC "-//W3C//DTD SVG 1.1//EN"
 "http://www.w3.org/Graphics/SVG/1.1/DTD/svg11.dtd">
<!-- Generated by graphviz version 2.40.1 (20161225.0304)
 -->
<!-- Title: dependencies Pages: 1 -->
<svg width="806pt" height="211pt"
 viewBox="0.00 0.00 806.00 211.00" xmlns="http://www.w3.org/2000/svg" xmlns:xlink="http://www.w3.org/1999/xlink">
<g id="graph0" class="graph" transform="scale(1 1) rotate(0) translate(4 207)">
<title>dependencies</title>
<polygon fill="#ffffff" stroke="transparent" points="-4,4 -4,-207 802,-207 802,4 -4,4"/>
<text text-anchor="start" x="378.0091" y="-42.4" font-family="sans-serif" font-weight="bold" font-size="14.00" fill="#000000">Legend</text>
<polygon fill="#ffffb3" stroke="transparent" points="165,-10 165,-30 185,-30 185,-10 165,-10"/>
<text text-anchor="start" x="188.629" y="-15.4" font-family="sans-serif" font-size="14.00" fill="#000000"> &#160;Declarations</text>
<polygon fill="#8dd3c7" stroke="transparent" points="278,-10 278,-30 298,-30 298,-10 278,-10"/>
<text text-anchor="start" x="301.7251" y="-15.4" font-family="sans-serif" font-size="14.00" fill="#000000"> &#160;Module</text>
<polygon fill="#80b1d3" stroke="transparent" points="364,-10 364,-30 384,-30 384,-10 364,-10"/>
<text text-anchor="start" x="387.7812" y="-15.4" font-family="sans-serif" font-size="14.00" fill="#000000"> &#160;Bootstrap</text>
<polygon fill="#fdb462" stroke="transparent" points="461,-10 461,-30 481,-30 481,-10 461,-10"/>
<text text-anchor="start" x="484.6732" y="-15.4" font-family="sans-serif" font-size="14.00" fill="#000000"> &#160;Providers</text>
<polygon fill="#fb8072" stroke="transparent" points="557,-10 557,-30 577,-30 577,-10 557,-10"/>
<text text-anchor="start" x="580.7258" y="-15.4" font-family="sans-serif" font-size="14.00" fill="#000000"> &#160;Exports</text>
<g id="clust1" class="cluster">
<title>cluster_ClubesModule</title>
<polygon fill="none" stroke="#000000" stroke-dasharray="1,5" points="8,-70 8,-195 790,-195 790,-70 8,-70"/>
</g>
<g id="clust2" class="cluster">
<title>cluster_ClubesModule_declarations</title>
<polygon fill="none" stroke="#000000" points="324,-78 324,-130 782,-130 782,-78 324,-78"/>
</g>
<g id="clust6" class="cluster">
<title>cluster_ClubesModule_imports</title>
<polygon fill="none" stroke="#000000" points="16,-78 16,-130 316,-130 316,-78 16,-78"/>
</g>
<!-- ClubPopupComponent -->
<g id="node1" class="node">
<title>ClubPopupComponent</title>
<polygon fill="#ffffb3" stroke="#000000" points="774.3426,-122 629.6574,-122 629.6574,-86 774.3426,-86 774.3426,-122"/>
<text text-anchor="middle" x="702" y="-99.8" font-family="Times,serif" font-size="14.00" fill="#000000">ClubPopupComponent</text>
</g>
<!-- ClubesModule -->
<g id="node4" class="node">
<title>ClubesModule</title>
<polygon fill="#8dd3c7" stroke="#000000" points="452.4372,-187 449.4372,-191 428.4372,-191 425.4372,-187 353.5628,-187 353.5628,-151 452.4372,-151 452.4372,-187"/>
<text text-anchor="middle" x="403" y="-164.8" font-family="Times,serif" font-size="14.00" fill="#000000">ClubesModule</text>
</g>
<!-- ClubPopupComponent&#45;&gt;ClubesModule -->
<g id="edge1" class="edge">
<title>ClubPopupComponent&#45;&gt;ClubesModule</title>
<path fill="none" stroke="#000000" d="M702,-122.2843C702,-143.3211 702,-175 702,-175 702,-175 462.3738,-175 462.3738,-175"/>
<polygon fill="#000000" stroke="#000000" points="462.3738,-171.5001 452.3738,-175 462.3737,-178.5001 462.3738,-171.5001"/>
</g>
<!-- ClubesComponent -->
<g id="node2" class="node">
<title>ClubesComponent</title>
<polygon fill="#ffffb3" stroke="#000000" points="612.219,-122 491.781,-122 491.781,-86 612.219,-86 612.219,-122"/>
<text text-anchor="middle" x="552" y="-99.8" font-family="Times,serif" font-size="14.00" fill="#000000">ClubesComponent</text>
</g>
<!-- ClubesComponent&#45;&gt;ClubesModule -->
<g id="edge2" class="edge">
<title>ClubesComponent&#45;&gt;ClubesModule</title>
<path fill="none" stroke="#000000" d="M552,-122.0225C552,-139.3734 552,-163 552,-163 552,-163 462.6148,-163 462.6148,-163"/>
<polygon fill="#000000" stroke="#000000" points="462.6149,-159.5001 452.6148,-163 462.6148,-166.5001 462.6149,-159.5001"/>
</g>
<!-- ClubesListComponent -->
<g id="node3" class="node">
<title>ClubesListComponent</title>
<polygon fill="#ffffb3" stroke="#000000" points="473.9972,-122 332.0028,-122 332.0028,-86 473.9972,-86 473.9972,-122"/>
<text text-anchor="middle" x="403" y="-99.8" font-family="Times,serif" font-size="14.00" fill="#000000">ClubesListComponent</text>
</g>
<!-- ClubesListComponent&#45;&gt;ClubesModule -->
<g id="edge3" class="edge">
<title>ClubesListComponent&#45;&gt;ClubesModule</title>
<path fill="none" stroke="#000000" d="M403,-122.1061C403,-122.1061 403,-140.991 403,-140.991"/>
<polygon fill="#000000" stroke="#000000" points="399.5001,-140.9909 403,-150.991 406.5001,-140.991 399.5001,-140.9909"/>
</g>
<!-- DisciplinasRoutingModule -->
<g id="node5" class="node">
<title>DisciplinasRoutingModule</title>
<polygon fill="#8dd3c7" stroke="#000000" points="307.6554,-122 304.6554,-126 283.6554,-126 280.6554,-122 140.3446,-122 140.3446,-86 307.6554,-86 307.6554,-122"/>
<text text-anchor="middle" x="224" y="-99.8" font-family="Times,serif" font-size="14.00" fill="#000000">DisciplinasRoutingModule</text>
</g>
<!-- DisciplinasRoutingModule&#45;&gt;ClubesModule -->
<g id="edge4" class="edge">
<title>DisciplinasRoutingModule&#45;&gt;ClubesModule</title>
<path fill="none" stroke="#000000" d="M224,-122.0225C224,-139.3734 224,-163 224,-163 224,-163 343.6136,-163 343.6136,-163"/>
<polygon fill="#000000" stroke="#000000" points="343.6137,-166.5001 353.6136,-163 343.6136,-159.5001 343.6137,-166.5001"/>
</g>
<!-- SharedModule -->
<g id="node6" class="node">
<title>SharedModule</title>
<polygon fill="#8dd3c7" stroke="#000000" points="122.4231,-122 119.4231,-126 98.4231,-126 95.4231,-122 23.5769,-122 23.5769,-86 122.4231,-86 122.4231,-122"/>
<text text-anchor="middle" x="73" y="-99.8" font-family="Times,serif" font-size="14.00" fill="#000000">SharedModule</text>
</g>
<!-- SharedModule&#45;&gt;ClubesModule -->
<g id="edge5" class="edge">
<title>SharedModule&#45;&gt;ClubesModule</title>
<path fill="none" stroke="#000000" d="M73,-122.2843C73,-143.3211 73,-175 73,-175 73,-175 343.5957,-175 343.5957,-175"/>
<polygon fill="#000000" stroke="#000000" points="343.5957,-178.5001 353.5957,-175 343.5956,-171.5001 343.5957,-178.5001"/>
</g>
</g>
</svg>
