<?xml version="1.0" encoding="UTF-8" standalone="no"?>
<!DOCTYPE svg PUBLIC "-//W3C//DTD SVG 1.1//EN"
 "http://www.w3.org/Graphics/SVG/1.1/DTD/svg11.dtd">
<!-- Generated by graphviz version 2.40.1 (20161225.0304)
 -->
<!-- Title: dependencies Pages: 1 -->
<svg width="826pt" height="211pt"
 viewBox="0.00 0.00 826.00 211.00" xmlns="http://www.w3.org/2000/svg" xmlns:xlink="http://www.w3.org/1999/xlink">
<g id="graph0" class="graph" transform="scale(1 1) rotate(0) translate(4 207)">
<title>dependencies</title>
<polygon fill="#ffffff" stroke="transparent" points="-4,4 -4,-207 822,-207 822,4 -4,4"/>
<text text-anchor="start" x="388.0091" y="-42.4" font-family="sans-serif" font-weight="bold" font-size="14.00" fill="#000000">Legend</text>
<polygon fill="#ffffb3" stroke="transparent" points="175,-10 175,-30 195,-30 195,-10 175,-10"/>
<text text-anchor="start" x="198.629" y="-15.4" font-family="sans-serif" font-size="14.00" fill="#000000"> &#160;Declarations</text>
<polygon fill="#8dd3c7" stroke="transparent" points="288,-10 288,-30 308,-30 308,-10 288,-10"/>
<text text-anchor="start" x="311.7251" y="-15.4" font-family="sans-serif" font-size="14.00" fill="#000000"> &#160;Module</text>
<polygon fill="#80b1d3" stroke="transparent" points="374,-10 374,-30 394,-30 394,-10 374,-10"/>
<text text-anchor="start" x="397.7812" y="-15.4" font-family="sans-serif" font-size="14.00" fill="#000000"> &#160;Bootstrap</text>
<polygon fill="#fdb462" stroke="transparent" points="471,-10 471,-30 491,-30 491,-10 471,-10"/>
<text text-anchor="start" x="494.6732" y="-15.4" font-family="sans-serif" font-size="14.00" fill="#000000"> &#160;Providers</text>
<polygon fill="#fb8072" stroke="transparent" points="567,-10 567,-30 587,-30 587,-10 567,-10"/>
<text text-anchor="start" x="590.7258" y="-15.4" font-family="sans-serif" font-size="14.00" fill="#000000"> &#160;Exports</text>
<g id="clust1" class="cluster">
<title>cluster_UsuariosModule</title>
<polygon fill="none" stroke="#000000" stroke-dasharray="1,5" points="8,-70 8,-195 810,-195 810,-70 8,-70"/>
</g>
<g id="clust2" class="cluster">
<title>cluster_UsuariosModule_declarations</title>
<polygon fill="none" stroke="#000000" points="310,-78 310,-130 802,-130 802,-78 310,-78"/>
</g>
<g id="clust6" class="cluster">
<title>cluster_UsuariosModule_imports</title>
<polygon fill="none" stroke="#000000" points="16,-78 16,-130 302,-130 302,-78 16,-78"/>
</g>
<!-- UsuarioFormComponent -->
<g id="node1" class="node">
<title>UsuarioFormComponent</title>
<polygon fill="#ffffb3" stroke="#000000" points="793.9832,-122 638.0168,-122 638.0168,-86 793.9832,-86 793.9832,-122"/>
<text text-anchor="middle" x="716" y="-99.8" font-family="Times,serif" font-size="14.00" fill="#000000">UsuarioFormComponent</text>
</g>
<!-- UsuariosModule -->
<g id="node4" class="node">
<title>UsuariosModule</title>
<polygon fill="#8dd3c7" stroke="#000000" points="448.8118,-187 445.8118,-191 424.8118,-191 421.8118,-187 339.1882,-187 339.1882,-151 448.8118,-151 448.8118,-187"/>
<text text-anchor="middle" x="394" y="-164.8" font-family="Times,serif" font-size="14.00" fill="#000000">UsuariosModule</text>
</g>
<!-- UsuarioFormComponent&#45;&gt;UsuariosModule -->
<g id="edge1" class="edge">
<title>UsuarioFormComponent&#45;&gt;UsuariosModule</title>
<path fill="none" stroke="#000000" d="M716,-122.2843C716,-143.3211 716,-175 716,-175 716,-175 458.9879,-175 458.9879,-175"/>
<polygon fill="#000000" stroke="#000000" points="458.9879,-171.5001 448.9879,-175 458.9879,-178.5001 458.9879,-171.5001"/>
</g>
<!-- UsuariosComponent -->
<g id="node2" class="node">
<title>UsuariosComponent</title>
<polygon fill="#ffffb3" stroke="#000000" points="619.594,-122 488.406,-122 488.406,-86 619.594,-86 619.594,-122"/>
<text text-anchor="middle" x="554" y="-99.8" font-family="Times,serif" font-size="14.00" fill="#000000">UsuariosComponent</text>
</g>
<!-- UsuariosComponent&#45;&gt;UsuariosModule -->
<g id="edge2" class="edge">
<title>UsuariosComponent&#45;&gt;UsuariosModule</title>
<path fill="none" stroke="#000000" d="M554,-122.0225C554,-139.3734 554,-163 554,-163 554,-163 459.0629,-163 459.0629,-163"/>
<polygon fill="#000000" stroke="#000000" points="459.063,-159.5001 449.0629,-163 459.0629,-166.5001 459.063,-159.5001"/>
</g>
<!-- UsuariosListComponent -->
<g id="node3" class="node">
<title>UsuariosListComponent</title>
<polygon fill="#ffffb3" stroke="#000000" points="470.3725,-122 317.6275,-122 317.6275,-86 470.3725,-86 470.3725,-122"/>
<text text-anchor="middle" x="394" y="-99.8" font-family="Times,serif" font-size="14.00" fill="#000000">UsuariosListComponent</text>
</g>
<!-- UsuariosListComponent&#45;&gt;UsuariosModule -->
<g id="edge3" class="edge">
<title>UsuariosListComponent&#45;&gt;UsuariosModule</title>
<path fill="none" stroke="#000000" d="M394,-122.1061C394,-122.1061 394,-140.991 394,-140.991"/>
<polygon fill="#000000" stroke="#000000" points="390.5001,-140.9909 394,-150.991 397.5001,-140.991 390.5001,-140.9909"/>
</g>
<!-- SharedModule -->
<g id="node5" class="node">
<title>SharedModule</title>
<polygon fill="#8dd3c7" stroke="#000000" points="294.4231,-122 291.4231,-126 270.4231,-126 267.4231,-122 195.5769,-122 195.5769,-86 294.4231,-86 294.4231,-122"/>
<text text-anchor="middle" x="245" y="-99.8" font-family="Times,serif" font-size="14.00" fill="#000000">SharedModule</text>
</g>
<!-- SharedModule&#45;&gt;UsuariosModule -->
<g id="edge4" class="edge">
<title>SharedModule&#45;&gt;UsuariosModule</title>
<path fill="none" stroke="#000000" d="M245,-122.0225C245,-139.3734 245,-163 245,-163 245,-163 328.9412,-163 328.9412,-163"/>
<polygon fill="#000000" stroke="#000000" points="328.9413,-166.5001 338.9412,-163 328.9412,-159.5001 328.9413,-166.5001"/>
</g>
<!-- UsuariosRoutingModule -->
<g id="node6" class="node">
<title>UsuariosRoutingModule</title>
<polygon fill="#8dd3c7" stroke="#000000" points="178.4298,-122 175.4298,-126 154.4298,-126 151.4298,-122 23.5702,-122 23.5702,-86 178.4298,-86 178.4298,-122"/>
<text text-anchor="middle" x="101" y="-99.8" font-family="Times,serif" font-size="14.00" fill="#000000">UsuariosRoutingModule</text>
</g>
<!-- UsuariosRoutingModule&#45;&gt;UsuariosModule -->
<g id="edge5" class="edge">
<title>UsuariosRoutingModule&#45;&gt;UsuariosModule</title>
<path fill="none" stroke="#000000" d="M101,-122.2843C101,-143.3211 101,-175 101,-175 101,-175 329.2327,-175 329.2327,-175"/>
<polygon fill="#000000" stroke="#000000" points="329.2327,-178.5001 339.2327,-175 329.2326,-171.5001 329.2327,-178.5001"/>
</g>
</g>
</svg>
