<?xml version="1.0" encoding="UTF-8" standalone="no"?>
<!DOCTYPE svg PUBLIC "-//W3C//DTD SVG 1.1//EN"
 "http://www.w3.org/Graphics/SVG/1.1/DTD/svg11.dtd">
<!-- Generated by graphviz version 2.40.1 (20161225.0304)
 -->
<!-- Title: dependencies Pages: 1 -->
<svg width="3061pt" height="211pt"
 viewBox="0.00 0.00 3061.00 211.00" xmlns="http://www.w3.org/2000/svg" xmlns:xlink="http://www.w3.org/1999/xlink">
<g id="graph0" class="graph" transform="scale(1 1) rotate(0) translate(4 207)">
<title>dependencies</title>
<polygon fill="#ffffff" stroke="transparent" points="-4,4 -4,-207 3057,-207 3057,4 -4,4"/>
<text text-anchor="start" x="1505.5091" y="-42.4" font-family="sans-serif" font-weight="bold" font-size="14.00" fill="#000000">Legend</text>
<polygon fill="#ffffb3" stroke="transparent" points="1292.5,-10 1292.5,-30 1312.5,-30 1312.5,-10 1292.5,-10"/>
<text text-anchor="start" x="1316.129" y="-15.4" font-family="sans-serif" font-size="14.00" fill="#000000"> &#160;Declarations</text>
<polygon fill="#8dd3c7" stroke="transparent" points="1405.5,-10 1405.5,-30 1425.5,-30 1425.5,-10 1405.5,-10"/>
<text text-anchor="start" x="1429.2251" y="-15.4" font-family="sans-serif" font-size="14.00" fill="#000000"> &#160;Module</text>
<polygon fill="#80b1d3" stroke="transparent" points="1491.5,-10 1491.5,-30 1511.5,-30 1511.5,-10 1491.5,-10"/>
<text text-anchor="start" x="1515.2812" y="-15.4" font-family="sans-serif" font-size="14.00" fill="#000000"> &#160;Bootstrap</text>
<polygon fill="#fdb462" stroke="transparent" points="1588.5,-10 1588.5,-30 1608.5,-30 1608.5,-10 1588.5,-10"/>
<text text-anchor="start" x="1612.1732" y="-15.4" font-family="sans-serif" font-size="14.00" fill="#000000"> &#160;Providers</text>
<polygon fill="#fb8072" stroke="transparent" points="1684.5,-10 1684.5,-30 1704.5,-30 1704.5,-10 1684.5,-10"/>
<text text-anchor="start" x="1708.2258" y="-15.4" font-family="sans-serif" font-size="14.00" fill="#000000"> &#160;Exports</text>
<g id="clust1" class="cluster">
<title>cluster_CompeticionesModule</title>
<polygon fill="none" stroke="#000000" stroke-dasharray="1,5" points="8,-70 8,-195 3045,-195 3045,-70 8,-70"/>
</g>
<g id="clust2" class="cluster">
<title>cluster_CompeticionesModule_declarations</title>
<polygon fill="none" stroke="#000000" points="345,-78 345,-130 3037,-130 3037,-78 345,-78"/>
</g>
<g id="clust17" class="cluster">
<title>cluster_CompeticionesModule_imports</title>
<polygon fill="none" stroke="#000000" points="16,-78 16,-130 337,-130 337,-78 16,-78"/>
</g>
<!-- AlturaEditComponent -->
<g id="node1" class="node">
<title>AlturaEditComponent</title>
<polygon fill="#ffffb3" stroke="#000000" points="3029.4299,-122 2888.5701,-122 2888.5701,-86 3029.4299,-86 3029.4299,-122"/>
<text text-anchor="middle" x="2959" y="-99.8" font-family="Times,serif" font-size="14.00" fill="#000000">AlturaEditComponent</text>
</g>
<!-- CompeticionesModule -->
<g id="node15" class="node">
<title>CompeticionesModule</title>
<polygon fill="#8dd3c7" stroke="#000000" points="1567.5379,-187 1564.5379,-191 1543.5379,-191 1540.5379,-187 1424.4621,-187 1424.4621,-151 1567.5379,-151 1567.5379,-187"/>
<text text-anchor="middle" x="1496" y="-164.8" font-family="Times,serif" font-size="14.00" fill="#000000">CompeticionesModule</text>
</g>
<!-- AlturaEditComponent&#45;&gt;CompeticionesModule -->
<g id="edge1" class="edge">
<title>AlturaEditComponent&#45;&gt;CompeticionesModule</title>
<path fill="none" stroke="#000000" d="M2959,-122.3228C2959,-145.6602 2959,-183 2959,-183 2959,-183 1577.5539,-183 1577.5539,-183"/>
<polygon fill="#000000" stroke="#000000" points="1577.5539,-179.5001 1567.5539,-183 1577.5539,-186.5001 1577.5539,-179.5001"/>
</g>
<!-- AlturasAddComponent -->
<g id="node2" class="node">
<title>AlturasAddComponent</title>
<polygon fill="#ffffb3" stroke="#000000" points="2870.147,-122 2723.853,-122 2723.853,-86 2870.147,-86 2870.147,-122"/>
<text text-anchor="middle" x="2797" y="-99.8" font-family="Times,serif" font-size="14.00" fill="#000000">AlturasAddComponent</text>
</g>
<!-- AlturasAddComponent&#45;&gt;CompeticionesModule -->
<g id="edge2" class="edge">
<title>AlturasAddComponent&#45;&gt;CompeticionesModule</title>
<path fill="none" stroke="#000000" d="M2797,-122.2921C2797,-144.2057 2797,-178 2797,-178 2797,-178 1577.8006,-178 1577.8006,-178"/>
<polygon fill="#000000" stroke="#000000" points="1577.8006,-174.5001 1567.8006,-178 1577.8005,-181.5001 1577.8006,-174.5001"/>
</g>
<!-- CompeticionPopupComponent -->
<g id="node3" class="node">
<title>CompeticionPopupComponent</title>
<polygon fill="#ffffb3" stroke="#000000" points="2705.9437,-122 2516.0563,-122 2516.0563,-86 2705.9437,-86 2705.9437,-122"/>
<text text-anchor="middle" x="2611" y="-99.8" font-family="Times,serif" font-size="14.00" fill="#000000">CompeticionPopupComponent</text>
</g>
<!-- CompeticionPopupComponent&#45;&gt;CompeticionesModule -->
<g id="edge3" class="edge">
<title>CompeticionPopupComponent&#45;&gt;CompeticionesModule</title>
<path fill="none" stroke="#000000" d="M2611,-122.0267C2611,-142.7672 2611,-174 2611,-174 2611,-174 1577.8712,-174 1577.8712,-174"/>
<polygon fill="#000000" stroke="#000000" points="1577.8713,-170.5001 1567.8712,-174 1577.8712,-177.5001 1577.8713,-170.5001"/>
</g>
<!-- CompeticionesComponent -->
<g id="node4" class="node">
<title>CompeticionesComponent</title>
<polygon fill="#ffffb3" stroke="#000000" points="2498.8201,-122 2333.1799,-122 2333.1799,-86 2498.8201,-86 2498.8201,-122"/>
<text text-anchor="middle" x="2416" y="-99.8" font-family="Times,serif" font-size="14.00" fill="#000000">CompeticionesComponent</text>
</g>
<!-- CompeticionesComponent&#45;&gt;CompeticionesModule -->
<g id="edge4" class="edge">
<title>CompeticionesComponent&#45;&gt;CompeticionesModule</title>
<path fill="none" stroke="#000000" d="M2416,-122.1061C2416,-141.3391 2416,-169 2416,-169 2416,-169 1577.8077,-169 1577.8077,-169"/>
<polygon fill="#000000" stroke="#000000" points="1577.8077,-165.5001 1567.8077,-169 1577.8076,-172.5001 1577.8077,-165.5001"/>
</g>
<!-- CompeticionesListComponent -->
<g id="node5" class="node">
<title>CompeticionesListComponent</title>
<polygon fill="#ffffb3" stroke="#000000" points="2315.5982,-122 2128.4018,-122 2128.4018,-86 2315.5982,-86 2315.5982,-122"/>
<text text-anchor="middle" x="2222" y="-99.8" font-family="Times,serif" font-size="14.00" fill="#000000">CompeticionesListComponent</text>
</g>
<!-- CompeticionesListComponent&#45;&gt;CompeticionesModule -->
<g id="edge5" class="edge">
<title>CompeticionesListComponent&#45;&gt;CompeticionesModule</title>
<path fill="none" stroke="#000000" d="M2222,-122.302C2222,-140.2699 2222,-165 2222,-165 2222,-165 1577.5986,-165 1577.5986,-165"/>
<polygon fill="#000000" stroke="#000000" points="1577.5986,-161.5001 1567.5986,-165 1577.5985,-168.5001 1577.5986,-161.5001"/>
</g>
<!-- HojaDeCampoNoSvComponent -->
<g id="node6" class="node">
<title>HojaDeCampoNoSvComponent</title>
<polygon fill="#ffffb3" stroke="#000000" points="2110.6965,-122 1913.3035,-122 1913.3035,-86 2110.6965,-86 2110.6965,-122"/>
<text text-anchor="middle" x="2012" y="-99.8" font-family="Times,serif" font-size="14.00" fill="#000000">HojaDeCampoNoSvComponent</text>
</g>
<!-- HojaDeCampoNoSvComponent&#45;&gt;CompeticionesModule -->
<g id="edge6" class="edge">
<title>HojaDeCampoNoSvComponent&#45;&gt;CompeticionesModule</title>
<path fill="none" stroke="#000000" d="M2012,-122.027C2012,-138.3976 2012,-160 2012,-160 2012,-160 1577.7476,-160 1577.7476,-160"/>
<polygon fill="#000000" stroke="#000000" points="1577.7476,-156.5001 1567.7476,-160 1577.7476,-163.5001 1577.7476,-156.5001"/>
</g>
<!-- HojaDeCampoSvComponent -->
<g id="node7" class="node">
<title>HojaDeCampoSvComponent</title>
<polygon fill="#ffffb3" stroke="#000000" points="1895.0898,-122 1714.9102,-122 1714.9102,-86 1895.0898,-86 1895.0898,-122"/>
<text text-anchor="middle" x="1805" y="-99.8" font-family="Times,serif" font-size="14.00" fill="#000000">HojaDeCampoSvComponent</text>
</g>
<!-- HojaDeCampoSvComponent&#45;&gt;CompeticionesModule -->
<g id="edge7" class="edge">
<title>HojaDeCampoSvComponent&#45;&gt;CompeticionesModule</title>
<path fill="none" stroke="#000000" d="M1805,-122.1871C1805,-137.1824 1805,-156 1805,-156 1805,-156 1577.6675,-156 1577.6675,-156"/>
<polygon fill="#000000" stroke="#000000" points="1577.6675,-152.5001 1567.6675,-156 1577.6674,-159.5001 1577.6675,-152.5001"/>
</g>
<!-- InscripcionesAtletasComponent -->
<g id="node8" class="node">
<title>InscripcionesAtletasComponent</title>
<polygon fill="#ffffb3" stroke="#000000" points="1696.6204,-122 1501.3796,-122 1501.3796,-86 1696.6204,-86 1696.6204,-122"/>
<text text-anchor="middle" x="1599" y="-99.8" font-family="Times,serif" font-size="14.00" fill="#000000">InscripcionesAtletasComponent</text>
</g>
<!-- InscripcionesAtletasComponent&#45;&gt;CompeticionesModule -->
<g id="edge8" class="edge">
<title>InscripcionesAtletasComponent&#45;&gt;CompeticionesModule</title>
<path fill="none" stroke="#000000" d="M1534.4793,-122.1061C1534.4793,-122.1061 1534.4793,-140.991 1534.4793,-140.991"/>
<polygon fill="#000000" stroke="#000000" points="1530.9794,-140.9909 1534.4793,-150.991 1537.9794,-140.991 1530.9794,-140.9909"/>
</g>
<!-- InscripcionesListComponent -->
<g id="node9" class="node">
<title>InscripcionesListComponent</title>
<polygon fill="#ffffb3" stroke="#000000" points="1482.7464,-122 1305.2536,-122 1305.2536,-86 1482.7464,-86 1482.7464,-122"/>
<text text-anchor="middle" x="1394" y="-99.8" font-family="Times,serif" font-size="14.00" fill="#000000">InscripcionesListComponent</text>
</g>
<!-- InscripcionesListComponent&#45;&gt;CompeticionesModule -->
<g id="edge9" class="edge">
<title>InscripcionesListComponent&#45;&gt;CompeticionesModule</title>
<path fill="none" stroke="#000000" d="M1453.5523,-122.1061C1453.5523,-122.1061 1453.5523,-140.991 1453.5523,-140.991"/>
<polygon fill="#000000" stroke="#000000" points="1450.0523,-140.9909 1453.5523,-150.991 1457.0523,-140.991 1450.0523,-140.9909"/>
</g>
<!-- PruebaAyudaComponent -->
<g id="node10" class="node">
<title>PruebaAyudaComponent</title>
<polygon fill="#ffffb3" stroke="#000000" points="1286.5267,-122 1129.4733,-122 1129.4733,-86 1286.5267,-86 1286.5267,-122"/>
<text text-anchor="middle" x="1208" y="-99.8" font-family="Times,serif" font-size="14.00" fill="#000000">PruebaAyudaComponent</text>
</g>
<!-- PruebaAyudaComponent&#45;&gt;CompeticionesModule -->
<g id="edge10" class="edge">
<title>PruebaAyudaComponent&#45;&gt;CompeticionesModule</title>
<path fill="none" stroke="#000000" d="M1208,-122.1871C1208,-137.1824 1208,-156 1208,-156 1208,-156 1414.4389,-156 1414.4389,-156"/>
<polygon fill="#000000" stroke="#000000" points="1414.439,-159.5001 1424.4389,-156 1414.4389,-152.5001 1414.439,-159.5001"/>
</g>
<!-- PruebaPopupComponent -->
<g id="node11" class="node">
<title>PruebaPopupComponent</title>
<polygon fill="#ffffb3" stroke="#000000" points="1110.9874,-122 955.0126,-122 955.0126,-86 1110.9874,-86 1110.9874,-122"/>
<text text-anchor="middle" x="1033" y="-99.8" font-family="Times,serif" font-size="14.00" fill="#000000">PruebaPopupComponent</text>
</g>
<!-- PruebaPopupComponent&#45;&gt;CompeticionesModule -->
<g id="edge11" class="edge">
<title>PruebaPopupComponent&#45;&gt;CompeticionesModule</title>
<path fill="none" stroke="#000000" d="M1033,-122.027C1033,-138.3976 1033,-160 1033,-160 1033,-160 1414.4178,-160 1414.4178,-160"/>
<polygon fill="#000000" stroke="#000000" points="1414.4178,-163.5001 1424.4178,-160 1414.4177,-156.5001 1414.4178,-163.5001"/>
</g>
<!-- PruebasListComponent -->
<g id="node12" class="node">
<title>PruebasListComponent</title>
<polygon fill="#ffffb3" stroke="#000000" points="936.9284,-122 789.0716,-122 789.0716,-86 936.9284,-86 936.9284,-122"/>
<text text-anchor="middle" x="863" y="-99.8" font-family="Times,serif" font-size="14.00" fill="#000000">PruebasListComponent</text>
</g>
<!-- PruebasListComponent&#45;&gt;CompeticionesModule -->
<g id="edge12" class="edge">
<title>PruebasListComponent&#45;&gt;CompeticionesModule</title>
<path fill="none" stroke="#000000" d="M863,-122.302C863,-140.2699 863,-165 863,-165 863,-165 1414.3105,-165 1414.3105,-165"/>
<polygon fill="#000000" stroke="#000000" points="1414.3105,-168.5001 1424.3105,-165 1414.3105,-161.5001 1414.3105,-168.5001"/>
</g>
<!-- ResultadoIntentoNoSvComponent -->
<g id="node13" class="node">
<title>ResultadoIntentoNoSvComponent</title>
<polygon fill="#ffffb3" stroke="#000000" points="771.3696,-122 562.6304,-122 562.6304,-86 771.3696,-86 771.3696,-122"/>
<text text-anchor="middle" x="667" y="-99.8" font-family="Times,serif" font-size="14.00" fill="#000000">ResultadoIntentoNoSvComponent</text>
</g>
<!-- ResultadoIntentoNoSvComponent&#45;&gt;CompeticionesModule -->
<g id="edge13" class="edge">
<title>ResultadoIntentoNoSvComponent&#45;&gt;CompeticionesModule</title>
<path fill="none" stroke="#000000" d="M667,-122.1061C667,-141.3391 667,-169 667,-169 667,-169 1414.2425,-169 1414.2425,-169"/>
<polygon fill="#000000" stroke="#000000" points="1414.2426,-172.5001 1424.2425,-169 1414.2425,-165.5001 1414.2426,-172.5001"/>
</g>
<!-- ResultadoIntentoSvComponent -->
<g id="node14" class="node">
<title>ResultadoIntentoSvComponent</title>
<polygon fill="#ffffb3" stroke="#000000" points="544.7631,-122 353.2369,-122 353.2369,-86 544.7631,-86 544.7631,-122"/>
<text text-anchor="middle" x="449" y="-99.8" font-family="Times,serif" font-size="14.00" fill="#000000">ResultadoIntentoSvComponent</text>
</g>
<!-- ResultadoIntentoSvComponent&#45;&gt;CompeticionesModule -->
<g id="edge14" class="edge">
<title>ResultadoIntentoSvComponent&#45;&gt;CompeticionesModule</title>
<path fill="none" stroke="#000000" d="M449,-122.0267C449,-142.7672 449,-174 449,-174 449,-174 1414.4475,-174 1414.4475,-174"/>
<polygon fill="#000000" stroke="#000000" points="1414.4476,-177.5001 1424.4475,-174 1414.4475,-170.5001 1414.4476,-177.5001"/>
</g>
<!-- CompeticionesRoutingModule -->
<g id="node16" class="node">
<title>CompeticionesRoutingModule</title>
<polygon fill="#8dd3c7" stroke="#000000" points="329.1553,-122 326.1553,-126 305.1553,-126 302.1553,-122 140.8447,-122 140.8447,-86 329.1553,-86 329.1553,-122"/>
<text text-anchor="middle" x="235" y="-99.8" font-family="Times,serif" font-size="14.00" fill="#000000">CompeticionesRoutingModule</text>
</g>
<!-- CompeticionesRoutingModule&#45;&gt;CompeticionesModule -->
<g id="edge15" class="edge">
<title>CompeticionesRoutingModule&#45;&gt;CompeticionesModule</title>
<path fill="none" stroke="#000000" d="M235,-122.2921C235,-144.2057 235,-178 235,-178 235,-178 1414.1327,-178 1414.1327,-178"/>
<polygon fill="#000000" stroke="#000000" points="1414.1328,-181.5001 1424.1327,-178 1414.1327,-174.5001 1414.1328,-181.5001"/>
</g>
<!-- SharedModule -->
<g id="node17" class="node">
<title>SharedModule</title>
<polygon fill="#8dd3c7" stroke="#000000" points="122.4231,-122 119.4231,-126 98.4231,-126 95.4231,-122 23.5769,-122 23.5769,-86 122.4231,-86 122.4231,-122"/>
<text text-anchor="middle" x="73" y="-99.8" font-family="Times,serif" font-size="14.00" fill="#000000">SharedModule</text>
</g>
<!-- SharedModule&#45;&gt;CompeticionesModule -->
<g id="edge16" class="edge">
<title>SharedModule&#45;&gt;CompeticionesModule</title>
<path fill="none" stroke="#000000" d="M73,-122.3228C73,-145.6602 73,-183 73,-183 73,-183 1414.458,-183 1414.458,-183"/>
<polygon fill="#000000" stroke="#000000" points="1414.458,-186.5001 1424.458,-183 1414.458,-179.5001 1414.458,-186.5001"/>
</g>
</g>
</svg>
